<svg width="64" height="64" viewBox="0 0 64 64" fill="none" xmlns="http://www.w3.org/2000/svg">
<g id="baby-stroller-svgrepo-com 1" clip-path="url(#clip0_1236_220)">
<g id="Page-1">
<g id="Baby-stroller">
<path id="Shape_1_" d="M8.12698 22.7556L7.11111 16.7619H0" stroke="#454545" stroke-width="2"/>
<path id="Shape_4_" d="M52.8254 41.346C56.9192 39.1985 60.0376 35.1445 61.6827 31M18.9968 41.7524C12.8 38.4 8.12695 28.7492 8.12695 23.1619V22.7556H18.2857L22.3492 26.9206H33.16" stroke="#454545" stroke-width="2"/>
<g id="Group 614">
<path id="Shape_4__2" d="M39.6191 9.65079C44.7493 6.98412 62.9842 8.25396 62.9842 24.7873C62.9842 25.4724 62.926 26.1906 62.8141 26.9206H39.6191V9.65079Z" stroke="#FF6000" stroke-width="2"/>
<path id="Shape_2_" d="M39.6191 26.819L51.7273 9.50348" stroke="#FF6000" stroke-width="2"/>
<path id="Shape_3_" d="M39.6191 26.9206L60.8509 16.7619" stroke="#FF6000" stroke-width="2"/>
</g>
<path id="Shape_5_" d="M28.3429 44.4952C30.8826 45.0032 32.7111 45.1048 35.5556 45.1048C38.4 45.1048 41.1429 44.8 43.6826 44.2921" stroke="#454545" stroke-width="2"/>
<path id="Oval" d="M22.3491 55.365C26.2765 55.365 29.4603 52.1813 29.4603 48.2539C29.4603 44.3266 26.2765 41.1428 22.3491 41.1428C18.4218 41.1428 15.238 44.3266 15.238 48.2539C15.238 52.1813 18.4218 55.365 22.3491 55.365Z" stroke="#454545" stroke-width="2"/>
<path id="Oval_1_" d="M49.7777 55.365C53.7051 55.365 56.8888 52.1813 56.8888 48.2539C56.8888 44.3266 53.7051 41.1428 49.7777 41.1428C45.8504 41.1428 42.6666 44.3266 42.6666 48.2539C42.6666 52.1813 45.8504 55.365 49.7777 55.365Z" stroke="#454545" stroke-width="2"/>
</g>
</g>
</g>
<defs>
<clipPath id="clip0_1236_220">
<rect width="64" height="64" fill="white"/>
</clipPath>
</defs>
</svg>
