<svg width="64" height="64" viewBox="0 0 64 64" fill="none" xmlns="http://www.w3.org/2000/svg">
<g clip-path="url(#clip0_776_1008)">
<path d="M34.9383 62.6991C34.9497 62.6991 34.9614 62.6991 34.9722 62.6991C37.0188 62.6991 38.6923 61.0439 38.7105 58.993L38.7318 56.6433L24.325 56.5137L24.304 58.8633C24.2855 60.9251 25.9475 62.6183 28.0093 62.6368L34.9383 62.6991ZM34.9722 63.9958C34.9574 63.9958 34.942 63.9958 34.9265 63.9958L27.9978 63.9334C25.2213 63.9081 22.983 61.6285 23.008 58.8516L23.0352 55.8538C23.0383 55.4973 23.3278 55.2112 23.683 55.2112C23.6849 55.2112 23.687 55.2112 23.6889 55.2112L39.3917 55.3525C39.5633 55.3538 39.7278 55.4238 39.8485 55.5464C39.9691 55.6689 40.0358 55.8346 40.034 56.0066L40.0065 59.0044C39.9821 61.7658 37.7275 63.9958 34.9722 63.9958Z" fill="#454545"/>
<path d="M32.0036 4.47973C32.0018 4.47973 31.9996 4.47973 31.9978 4.47973C31.6398 4.47665 31.3524 4.18344 31.3555 3.82572L31.3749 1.67109C31.378 1.31523 31.6675 1.02881 32.0231 1.02881C32.0249 1.02881 32.0271 1.02881 32.029 1.02881C32.3867 1.0319 32.6743 1.3248 32.6709 1.68282L32.6515 3.83745C32.6484 4.19331 32.3586 4.47973 32.0036 4.47973Z" fill="#454545"/>
<path d="M57.2579 28.026C57.256 28.026 57.2539 28.026 57.252 28.026L55.0974 28.0066C54.7397 28.0035 54.4523 27.7109 54.4551 27.3526C54.4585 26.9967 54.748 26.71 55.1032 26.71C55.1051 26.71 55.1073 26.71 55.1091 26.71L57.2634 26.7294C57.6211 26.7328 57.9091 27.0257 57.9057 27.3837C57.9026 27.7396 57.6128 28.026 57.2579 28.026Z" fill="#454545"/>
<mask id="mask0_776_1008" style="mask-type:luminance" maskUnits="userSpaceOnUse" x="5" y="26" width="5" height="2">
<path d="M5.67969 26.2322H9.16518V27.6544H5.67969V26.2322Z" fill="white"/>
</mask>
<g mask="url(#mask0_776_1008)">
<path d="M8.48352 27.5872C8.48136 27.5872 8.47951 27.5872 8.47735 27.5872L6.32334 27.5678C5.96593 27.5647 5.67828 27.2715 5.68167 26.9138C5.68445 26.5579 5.97426 26.2715 6.3292 26.2715C6.33136 26.2715 6.33321 26.2715 6.33537 26.2715L8.48908 26.2909C8.8471 26.294 9.13445 26.5872 9.13136 26.9449C9.12828 27.3008 8.83877 27.5872 8.48352 27.5872Z" fill="#454545"/>
</g>
<path d="M13.6263 45.646C13.4587 45.646 13.2911 45.5811 13.1642 45.4518C12.9133 45.1966 12.9173 44.7861 13.1723 44.5351L14.7093 43.0253C14.9645 42.7747 15.375 42.7781 15.6256 43.0336C15.8763 43.2892 15.8726 43.6993 15.6173 43.9503L14.0806 45.4605C13.954 45.5842 13.7902 45.646 13.6263 45.646Z" fill="#454545"/>
<path d="M49.81 46.147C49.6421 46.147 49.4745 46.0822 49.3473 45.9532L47.8384 44.4155C47.5874 44.1603 47.5908 43.7501 47.8458 43.4992C48.1013 43.2482 48.5121 43.2522 48.7627 43.5075L50.272 45.0442C50.5229 45.3004 50.5186 45.7109 50.2637 45.9615C50.1377 46.0853 49.9732 46.147 49.81 46.147Z" fill="#454545"/>
<path d="M15.46 11.1607C15.2924 11.1607 15.1248 11.0959 14.998 10.9666L13.4884 9.42925C13.2378 9.17369 13.2412 8.76351 13.4967 8.51258C13.752 8.26165 14.1622 8.26567 14.4131 8.52091L15.9224 10.058C16.173 10.3135 16.1693 10.7243 15.9143 10.9749C15.7878 11.0987 15.6239 11.1607 15.46 11.1607Z" fill="#454545"/>
<path d="M24.3656 51.8886L38.774 52.0183C38.8329 46.7553 40.7897 41.5525 44.2863 37.364C45.3425 36.0985 46.1919 34.6979 46.8187 33.1896H43.3339C43.0376 33.1896 42.7792 32.9886 42.7058 32.7019C42.6326 32.4149 42.7632 32.1149 43.0227 31.9729C43.7175 31.5923 44.149 30.8643 44.149 30.0729C44.149 28.8797 43.1783 27.9087 41.9854 27.9087C40.7925 27.9087 39.8218 28.8797 39.8218 30.0729C39.8218 30.8643 40.2533 31.5923 40.9481 31.9729C41.2079 32.1149 41.3379 32.4149 41.2647 32.7019C41.1916 32.9886 40.9329 33.1896 40.6369 33.1896H31.7317C31.374 33.1896 31.0839 32.8991 31.0839 32.5411V23.8405C30.6042 24.0856 30.0672 24.2173 29.5092 24.2173C27.6014 24.2173 26.0496 22.6646 26.0496 20.7565C26.0496 18.8482 27.6014 17.2957 29.5092 17.2957C30.0672 17.2957 30.6042 17.4275 31.0839 17.6729V10.6914C27.0592 10.8649 23.2758 12.522 20.3727 15.3951C17.3197 18.4173 15.6015 22.4269 15.5345 26.6862C15.4752 30.4476 16.7298 34.1365 19.0675 37.0723C22.4724 41.3476 24.3481 46.5991 24.3656 51.8886ZM39.416 53.3204C39.4144 53.3204 39.4123 53.3204 39.4104 53.3204L23.7076 53.1791C23.3499 53.176 23.0623 52.8828 23.0656 52.5251L23.0687 52.155C23.1147 47.068 21.3339 41.9985 18.0539 37.8797C15.5295 34.7093 14.1746 30.7269 14.2385 26.6661C14.311 22.0652 16.166 17.7352 19.4613 14.4735C22.7567 11.2118 27.1045 9.40284 31.7036 9.38H31.7268C31.8996 9.37661 32.0656 9.44605 32.1879 9.56796C32.3104 9.68988 32.3798 9.85531 32.3798 10.0281V19.0346C32.3798 19.3124 32.2036 19.5587 31.9419 19.6479C31.6795 19.738 31.3894 19.6513 31.2197 19.4322C30.8058 18.8979 30.1823 18.592 29.5092 18.592C28.316 18.592 27.3456 19.5633 27.3456 20.7565C27.3456 21.9498 28.316 22.9207 29.5092 22.9207C30.1823 22.9207 30.8058 22.6149 31.2197 22.0806C31.3894 21.8618 31.6795 21.7748 31.9419 21.8649C32.2036 21.9544 32.3798 22.2007 32.3798 22.4781V31.893H39.0431C38.7104 31.3556 38.5258 30.7275 38.5258 30.0729C38.5258 28.1646 40.0777 26.6124 41.9854 26.6124C43.8928 26.6124 45.445 28.1646 45.445 30.0729C45.445 30.7275 45.2604 31.3556 44.928 31.893H47.7595C47.9703 31.893 48.1672 31.9948 48.2882 32.1661C48.4101 32.3377 48.4403 32.5575 48.3712 32.7559C47.6752 34.7417 46.636 36.5717 45.2811 38.1942C41.9653 42.167 40.1147 47.0973 40.07 52.0778L40.0641 52.6782C40.0629 52.8501 39.9928 53.0146 39.8703 53.1349C39.7493 53.2535 39.586 53.3204 39.416 53.3204Z" fill="#454545"/>
<mask id="mask1_776_1008" style="mask-type:luminance" maskUnits="userSpaceOnUse" x="34" y="0" width="25" height="24">
<path d="M34.9238 0H58.3025V23.8617H34.9238V0Z" fill="white"/>
</mask>
<g mask="url(#mask1_776_1008)">
<path d="M53.8312 22.5183H56.197C56.6902 20.9711 56.9473 19.3575 56.9621 17.7164C57.0016 13.3328 55.3207 9.20625 52.2306 6.0976C49.2929 3.14236 45.4257 1.45717 41.2831 1.31118V9.65995C41.2831 9.93742 41.1068 10.184 40.8451 10.2732C40.5824 10.3633 40.2929 10.2766 40.1232 10.0572C39.709 9.52322 39.0858 9.21736 38.4127 9.21736C37.2198 9.21736 36.2491 10.1883 36.2491 11.3819C36.2491 12.5751 37.2198 13.5458 38.4127 13.5458C39.0858 13.5458 39.709 13.2396 40.1232 12.7059C40.2929 12.4868 40.5824 12.3998 40.8451 12.4896C41.1068 12.5794 41.2831 12.8257 41.2831 13.1025V22.5183H47.9463C47.6139 21.9803 47.4291 21.3528 47.4291 20.6979C47.4291 18.7899 48.9809 17.2374 50.8886 17.2374C52.7963 17.2374 54.3482 18.7899 54.3482 20.6979C54.3482 21.3528 54.1636 21.9803 53.8312 22.5183ZM56.6636 23.8146H52.2371C51.9411 23.8146 51.6824 23.6137 51.6093 23.3272C51.5361 23.0402 51.6664 22.7399 51.9263 22.5982C52.6207 22.217 53.0522 21.489 53.0522 20.6979C53.0522 19.5047 52.0815 18.534 50.8886 18.534C49.6957 18.534 48.725 19.5047 48.725 20.6979C48.725 21.489 49.1565 22.217 49.8516 22.5982C50.1112 22.7399 50.2414 23.0402 50.1679 23.3272C50.0948 23.6137 49.8365 23.8146 49.5405 23.8146H40.6352C40.2775 23.8146 39.9874 23.5241 39.9874 23.1664V14.4649C39.5074 14.7109 38.9704 14.8424 38.4127 14.8424C36.505 14.8424 34.9531 13.2899 34.9531 11.3819C34.9531 9.47353 36.505 7.92106 38.4127 7.92106C38.9704 7.92106 39.5074 8.05254 39.9874 8.2976V0.653469C39.9874 0.296061 40.276 0.00655502 40.6324 0.00532045C40.6541 0.00532045 40.6753 0.00439453 40.696 0.00439453C45.4074 0.00439453 49.8278 1.84205 53.1494 5.18372C56.4868 8.5402 58.3 12.9948 58.2581 17.7282C58.2408 19.6661 57.9096 21.568 57.2744 23.3803C57.1837 23.6402 56.9383 23.8146 56.6636 23.8146Z" fill="#FF6000"/>
</g>
</g>
<defs>
<clipPath id="clip0_776_1008">
<rect width="64" height="64" fill="white"/>
</clipPath>
</defs>
</svg>
