<svg width="64" height="64" viewBox="0 0 64 64" fill="none" xmlns="http://www.w3.org/2000/svg">
<g clip-path="url(#clip0_1027_1183)">
<path d="M34.9383 62.6991C34.9497 62.6991 34.9614 62.6991 34.9722 62.6991C37.0188 62.6991 38.6923 61.0439 38.7105 58.993L38.7318 56.6433L24.325 56.5137L24.304 58.8633C24.2855 60.9251 25.9475 62.6183 28.0093 62.6368L34.9383 62.6991ZM34.9722 63.9958C34.9574 63.9958 34.942 63.9958 34.9265 63.9958L27.9978 63.9334C25.2213 63.9081 22.983 61.6285 23.008 58.8516L23.0352 55.8538C23.0383 55.4973 23.3278 55.2112 23.683 55.2112C23.6849 55.2112 23.687 55.2112 23.6889 55.2112L39.3917 55.3525C39.5633 55.3538 39.7278 55.4238 39.8485 55.5464C39.9691 55.6689 40.0358 55.8346 40.0339 56.0066L40.0065 59.0044C39.9821 61.7658 37.7275 63.9958 34.9722 63.9958Z" fill="#454545"/>
<path d="M32.0034 4.47973C32.0015 4.47973 31.9994 4.47973 31.9975 4.47973C31.6395 4.47665 31.3522 4.18344 31.3552 3.82572L31.3747 1.67109C31.3778 1.31523 31.6673 1.02881 32.0228 1.02881C32.0247 1.02881 32.0269 1.02881 32.0287 1.02881C32.3864 1.0319 32.6741 1.3248 32.6707 1.68282L32.6512 3.83745C32.6482 4.19331 32.3583 4.47973 32.0034 4.47973Z" fill="#454545"/>
<path d="M57.2571 28.026C57.2553 28.026 57.2531 28.026 57.2513 28.026L55.0966 28.0066C54.7389 28.0035 54.4516 27.7109 54.4544 27.3526C54.4578 26.9967 54.7473 26.71 55.1025 26.71C55.1044 26.71 55.1065 26.71 55.1084 26.71L57.2627 26.7294C57.6204 26.7328 57.9084 27.0257 57.905 27.3837C57.9019 27.7396 57.6121 28.026 57.2571 28.026Z" fill="#454545"/>
<mask id="mask0_1027_1183" style="mask-type:luminance" maskUnits="userSpaceOnUse" x="5" y="26" width="5" height="2">
<path d="M5.67993 26.2322H9.16543V27.6544H5.67993V26.2322Z" fill="white"/>
</mask>
<g mask="url(#mask0_1027_1183)">
<path d="M8.48425 27.5872C8.48209 27.5872 8.48024 27.5872 8.47808 27.5872L6.32407 27.5678C5.96666 27.5647 5.67901 27.2715 5.6824 26.9138C5.68518 26.5579 5.975 26.2715 6.32993 26.2715C6.33209 26.2715 6.33395 26.2715 6.33611 26.2715L8.48981 26.2909C8.84784 26.294 9.13518 26.5872 9.13209 26.9449C9.12901 27.3008 8.8395 27.5872 8.48425 27.5872Z" fill="#454545"/>
</g>
<path d="M13.626 45.646C13.4584 45.646 13.2908 45.5811 13.164 45.4518C12.9131 45.1966 12.9171 44.7861 13.172 44.5351L14.709 43.0253C14.9643 42.7747 15.3748 42.7781 15.6254 43.0336C15.876 43.2892 15.8723 43.6993 15.6171 43.9503L14.0803 45.4605C13.9538 45.5842 13.7899 45.646 13.626 45.646Z" fill="#454545"/>
<path d="M49.8105 46.147C49.6426 46.147 49.475 46.0822 49.3478 45.9532L47.8388 44.4155C47.5879 44.1603 47.5913 43.7501 47.8463 43.4992C48.1018 43.2482 48.5126 43.2522 48.7632 43.5075L50.2725 45.0442C50.5234 45.3004 50.5191 45.7109 50.2642 45.9615C50.1382 46.0853 49.9737 46.147 49.8105 46.147Z" fill="#454545"/>
<path d="M15.4595 11.1607C15.2919 11.1607 15.1243 11.0959 14.9975 10.9666L13.4879 9.42925C13.2373 9.17369 13.2407 8.76351 13.4963 8.51258C13.7515 8.26165 14.1617 8.26567 14.4126 8.52091L15.9219 10.058C16.1725 10.3135 16.1688 10.7243 15.9138 10.9749C15.7873 11.0987 15.6234 11.1607 15.4595 11.1607Z" fill="#454545"/>
<path d="M24.3652 51.8886L38.7735 52.0183C38.8324 46.7553 40.7892 41.5525 44.2858 37.364C45.342 36.0985 46.1914 34.6979 46.8183 33.1896H43.3334C43.0371 33.1896 42.7787 32.9886 42.7053 32.7019C42.6321 32.4149 42.7627 32.1149 43.0223 31.9729C43.717 31.5923 44.1485 30.8643 44.1485 30.0729C44.1485 28.8797 43.1778 27.9087 41.9849 27.9087C40.792 27.9087 39.8213 28.8797 39.8213 30.0729C39.8213 30.8643 40.2528 31.5923 40.9476 31.9729C41.2074 32.1149 41.3374 32.4149 41.2642 32.7019C41.1911 32.9886 40.9324 33.1896 40.6365 33.1896H31.7312C31.3735 33.1896 31.0834 32.8991 31.0834 32.5411V23.8405C30.6037 24.0856 30.0667 24.2173 29.5087 24.2173C27.601 24.2173 26.0491 22.6646 26.0491 20.7565C26.0491 18.8482 27.601 17.2957 29.5087 17.2957C30.0667 17.2957 30.6037 17.4275 31.0834 17.6729V10.6914C27.0587 10.8649 23.2753 12.522 20.3723 15.3951C17.3192 18.4173 15.601 22.4269 15.534 26.6862C15.4747 30.4476 16.7294 34.1365 19.067 37.0723C22.472 41.3476 24.3476 46.5991 24.3652 51.8886ZM39.4155 53.3204C39.4139 53.3204 39.4118 53.3204 39.4099 53.3204L23.7071 53.1791C23.3494 53.176 23.0618 52.8828 23.0652 52.5251L23.0682 52.155C23.1142 47.068 21.3334 41.9985 18.0534 37.8797C15.529 34.7093 14.1741 30.7269 14.238 26.6661C14.3105 22.0652 16.1655 17.7352 19.4608 14.4735C22.7562 11.2118 27.1041 9.40284 31.7031 9.38H31.7263C31.8991 9.37661 32.0652 9.44605 32.1874 9.56796C32.3099 9.68988 32.3794 9.85531 32.3794 10.0281V19.0346C32.3794 19.3124 32.2031 19.5587 31.9414 19.6479C31.6791 19.738 31.3889 19.6513 31.2192 19.4322C30.8053 18.8979 30.1818 18.592 29.5087 18.592C28.3155 18.592 27.3451 19.5633 27.3451 20.7565C27.3451 21.9498 28.3155 22.9207 29.5087 22.9207C30.1818 22.9207 30.8053 22.6149 31.2192 22.0806C31.3889 21.8618 31.6791 21.7748 31.9414 21.8649C32.2031 21.9544 32.3794 22.2007 32.3794 22.4781V31.893H39.0426C38.7099 31.3556 38.5253 30.7275 38.5253 30.0729C38.5253 28.1646 40.0772 26.6124 41.9849 26.6124C43.8923 26.6124 45.4445 28.1646 45.4445 30.0729C45.4445 30.7275 45.2599 31.3556 44.9275 31.893H47.759C47.9698 31.893 48.1667 31.9948 48.2877 32.1661C48.4096 32.3377 48.4399 32.5575 48.3707 32.7559C47.6747 34.7417 46.6355 36.5717 45.2806 38.1942C41.9649 42.167 40.1142 47.0973 40.0695 52.0778L40.0636 52.6781C40.0624 52.8501 39.9923 53.0146 39.8698 53.1349C39.7488 53.2535 39.5855 53.3204 39.4155 53.3204Z" fill="#454545"/>
<mask id="mask1_1027_1183" style="mask-type:luminance" maskUnits="userSpaceOnUse" x="34" y="0" width="25" height="24">
<path d="M34.9233 0H58.302V23.8617H34.9233V0Z" fill="white"/>
</mask>
<g mask="url(#mask1_1027_1183)">
<path d="M53.8305 22.5183H56.1962C56.6894 20.9711 56.9465 19.3575 56.9613 17.7164C57.0009 13.3328 55.32 9.20625 52.2299 6.0976C49.2922 3.14236 45.4249 1.45717 41.2823 1.31118V9.65995C41.2823 9.93742 41.1061 10.184 40.8444 10.2732C40.5817 10.3633 40.2922 10.2766 40.1225 10.0572C39.7083 9.52322 39.0851 9.21736 38.412 9.21736C37.2191 9.21736 36.2484 10.1883 36.2484 11.3819C36.2484 12.5751 37.2191 13.5458 38.412 13.5458C39.0851 13.5458 39.7083 13.2396 40.1225 12.7059C40.2922 12.4868 40.5817 12.3998 40.8444 12.4896C41.1061 12.5794 41.2823 12.8257 41.2823 13.1025V22.5183H47.9456C47.6132 21.9803 47.4283 21.3529 47.4283 20.6979C47.4283 18.7899 48.9802 17.2374 50.8879 17.2374C52.7956 17.2374 54.3475 18.7899 54.3475 20.6979C54.3475 21.3529 54.1629 21.9803 53.8305 22.5183ZM56.6629 23.8146H52.2363C51.9404 23.8146 51.6817 23.6137 51.6086 23.3272C51.5354 23.0402 51.6657 22.7399 51.9255 22.5982C52.62 22.217 53.0515 21.489 53.0515 20.6979C53.0515 19.5047 52.0808 18.534 50.8879 18.534C49.695 18.534 48.7243 19.5047 48.7243 20.6979C48.7243 21.489 49.1558 22.217 49.8509 22.5982C50.1104 22.7399 50.2407 23.0402 50.1672 23.3272C50.0941 23.6137 49.8357 23.8146 49.5397 23.8146H40.6345C40.2768 23.8146 39.9867 23.5241 39.9867 23.1664V14.4649C39.5067 14.7109 38.9697 14.8424 38.412 14.8424C36.5042 14.8424 34.9524 13.2899 34.9524 11.3819C34.9524 9.47353 36.5042 7.92106 38.412 7.92106C38.9697 7.92106 39.5067 8.05254 39.9867 8.2976V0.653469C39.9867 0.296061 40.2752 0.00655502 40.6317 0.00532045C40.6533 0.00532045 40.6746 0.00439453 40.6953 0.00439453C45.4067 0.00439453 49.8271 1.84205 53.1487 5.18372C56.486 8.5402 58.2993 12.9948 58.2573 17.7282C58.24 19.6661 57.9089 21.568 57.2737 23.3803C57.1829 23.6402 56.9376 23.8146 56.6629 23.8146Z" fill="#FF6000"/>
</g>
</g>
<defs>
<clipPath id="clip0_1027_1183">
<rect width="64" height="64" fill="white"/>
</clipPath>
</defs>
</svg>
