<svg width="129" height="128" viewBox="0 0 129 128" fill="none" xmlns="http://www.w3.org/2000/svg">
<g id="bx-message-check.svg">
<path id="Vector" d="M107.167 10.6667H21.8337C15.951 10.6667 11.167 15.4507 11.167 21.3334V85.3334C11.167 91.2161 15.951 96.0001 21.8337 96.0001H37.8337V116.091L71.311 96.0001H107.167C113.05 96.0001 117.834 91.2161 117.834 85.3334V21.3334C117.834 15.4507 113.05 10.6667 107.167 10.6667ZM107.167 85.3334H68.3563L48.5003 97.2428V85.3334H21.8337V21.3334H107.167V85.3334Z" fill="#454545"/>
<path id="Vector_2" d="M92.2712 38.4373L84.7298 30.896L59.1671 56.4587L46.9378 44.2293L39.3965 51.7707L59.1671 71.5413L92.2712 38.4373Z" fill="#FF6000"/>
</g>
</svg>
