<svg width="64" height="64" viewBox="0 0 64 64" fill="none" xmlns="http://www.w3.org/2000/svg">
<g id="case-svgrepo-com 1">
<path id="Vector" d="M17.3333 13.3333C19.5292 13.2777 21.758 11.8797 22.5052 9.81417C22.5281 9.75062 22.5517 9.67995 22.5988 9.53857L22.6673 9.33331C22.7797 8.99582 22.836 8.82702 22.8962 8.67731C23.6647 6.76563 25.4656 5.46763 27.5221 5.34307C27.6832 5.33331 27.861 5.33331 28.217 5.33331H35.7842C36.14 5.33331 36.3178 5.33331 36.4789 5.34307C38.5354 5.46763 40.3365 6.76563 41.105 8.67731C41.165 8.82702 41.2213 8.99579 41.3338 9.33331L41.4024 9.53857C41.4493 9.67913 41.473 9.75081 41.496 9.81417C42.2432 11.8797 44.4709 13.2777 46.6666 13.3333" stroke="#454545" stroke-width="2"/>
<path id="Vector_2" d="M8 32C8 42.0565 8 52.4184 11.5147 55.5424C15.0294 58.6667 20.6863 58.6667 32 58.6667C43.3136 58.6667 48.9707 58.6667 52.4853 55.5424C56 52.4184 56 42.0565 56 32" stroke="#454545" stroke-width="2"/>
<path id="Vector_3" d="M39.0941 37.8717L55.1136 33.0658C56.7016 32.5896 57.4957 32.3512 57.9994 31.7802C58.0976 31.669 58.1864 31.5498 58.2645 31.424C58.6666 30.7773 58.6666 29.9485 58.6666 28.2904C58.6666 21.7567 58.6666 18.4898 56.872 16.2842C56.5272 15.8603 56.1397 15.4729 55.7157 15.1279C53.5101 13.3333 50.2432 13.3333 43.7096 13.3333H20.2905C13.7567 13.3333 10.4898 13.3333 8.28422 15.1279C7.86033 15.4729 7.47286 15.8603 7.12793 16.2842C5.33331 18.4898 5.33331 21.7567 5.33331 28.2904C5.33331 29.9485 5.33331 30.7773 5.73539 31.424C5.81371 31.5498 5.90241 31.669 6.00054 31.7802C6.50438 32.3512 7.29838 32.5896 8.88638 33.0658L24.9058 37.8717" stroke="#454545" stroke-width="2"/>
<path id="Vector_4" d="M37.3333 33.3333H26.6666C25.9303 33.3333 25.3333 33.9304 25.3333 34.6666V40.4306C25.3333 40.9757 25.6653 41.4661 26.1714 41.6685L28.0384 42.4154C30.5816 43.4325 33.4184 43.4325 35.9616 42.4154L37.8285 41.6685C38.3346 41.4661 38.6666 40.9757 38.6666 40.4306V34.6666C38.6666 33.9304 38.0696 33.3333 37.3333 33.3333Z" stroke="#FF6000" stroke-width="2" stroke-linecap="round"/>
</g>
</svg>
