<svg width="64" height="64" viewBox="0 0 64 64" fill="none" xmlns="http://www.w3.org/2000/svg">
<rect x="0.8" y="0.8" width="62.4" height="62.4" rx="31.2" stroke="#555555" stroke-width="1.6"/>
<path d="M49.6004 17.6001C48.0682 18.6808 46.3718 19.5074 44.5764 20.0481C43.6128 18.9401 42.3321 18.1548 40.9076 17.7984C39.4832 17.4419 37.9836 17.5316 36.6117 18.0552C35.2399 18.5788 34.0619 19.5111 33.2372 20.726C32.4124 21.9409 31.9807 23.3798 32.0004 24.8481V26.4481C29.1886 26.521 26.4024 25.8974 23.89 24.6328C21.3776 23.3682 19.2169 21.5019 17.6004 19.2001C17.6004 19.2001 11.2004 33.6001 25.6004 40.0001C22.3052 42.2368 18.3798 43.3584 14.4004 43.2001C28.8004 51.2001 46.4004 43.2001 46.4004 24.8001C46.3989 24.3544 46.3561 23.9098 46.2724 23.4721C47.9054 21.8617 49.0577 19.8284 49.6004 17.6001Z" stroke="#FF6000" stroke-width="1.6" stroke-linecap="round" stroke-linejoin="round"/>
</svg>
