<svg width="64" height="64" viewBox="0 0 64 64" fill="none" xmlns="http://www.w3.org/2000/svg">
<path d="M32.0009 0C16.1852 0 3.31836 12.8669 3.31836 28.6825V43.0582C3.31836 44.8494 4.77561 46.3066 6.56673 46.3066H7.74173V46.3757C7.74173 48.1669 9.19898 49.6241 10.9901 49.6241H13.2017C14.9929 49.6241 16.4501 48.1669 16.4501 46.3757V33.1057C16.4501 31.3146 14.9929 29.8574 13.2017 29.8574H10.9901C9.19898 29.8574 7.74173 31.3146 7.74173 33.1057V33.1749H5.39173V28.6824C5.39173 14.0101 17.3285 2.07325 32.0009 2.07325C46.6732 2.07325 58.61 14.01 58.61 28.6824V33.1749H56.2601V33.1057C56.2601 31.3146 54.8029 29.8574 53.0117 29.8574H50.8001C49.009 29.8574 47.5517 31.3146 47.5517 33.1057V46.3757C47.5517 48.1669 49.009 49.6241 50.8001 49.6241H53.0117C54.8029 49.6241 56.2601 48.1669 56.2601 46.3757V46.3066H56.3607C55.8476 53.5067 50.0342 59.2637 42.8106 59.6887C42.3694 58.4181 41.1607 57.5032 39.7417 57.5032H36.4242C35.2427 57.5032 34.2817 58.4644 34.2817 59.6457V61.8574C34.2817 63.0389 35.2429 63.9999 36.4242 63.9999H39.7417C41.179 63.9999 42.4005 63.0612 42.8272 61.7651C51.2414 61.3244 58.0079 54.558 58.4485 46.1439C59.7447 45.7169 60.6834 44.4955 60.6834 43.0582V28.6825C60.6834 12.8669 47.8165 0 32.0009 0ZM9.81511 33.1059C9.81511 32.458 10.3422 31.9309 10.9901 31.9309H13.2017C13.8496 31.9309 14.3767 32.458 14.3767 33.1059V46.3759C14.3767 47.0237 13.8496 47.5509 13.2017 47.5509H10.9901C10.3422 47.5509 9.81511 47.0237 9.81511 46.3759V33.1059ZM7.74173 35.2484V44.2332H6.56673C5.91886 44.2332 5.39173 43.7061 5.39173 43.0582V35.2484H7.74173ZM54.1866 46.3757C54.1866 47.0236 53.6595 47.5507 53.0116 47.5507H50.8C50.1521 47.5507 49.625 47.0236 49.625 46.3757V33.1057C49.625 32.4579 50.152 31.9307 50.8 31.9307H53.0116C53.6595 31.9307 54.1866 32.4579 54.1866 33.1057V46.3757ZM39.7417 61.9266H36.4242C36.3861 61.9266 36.3551 61.8956 36.3551 61.8575V59.6459C36.3551 59.6077 36.3861 59.5767 36.4242 59.5767H39.7417C40.3896 59.5767 40.9167 60.1037 40.9167 60.7517C40.9167 61.3997 40.3896 61.9266 39.7417 61.9266ZM58.61 43.0582C58.61 43.7061 58.0829 44.2332 57.435 44.2332H56.26V35.2484H58.6099L58.61 43.0582Z" fill="#454545"/>
<path d="M29.3659 34.7612L31.5349 28.0856L33.7039 34.7612C33.8847 35.3174 34.403 35.6939 34.9878 35.6939H42.0069L36.3283 39.8196C35.8552 40.1634 35.6572 40.7727 35.8379 41.3289L38.0069 48.0044L32.3284 43.8787L31.8875 44.4855L32.3284 43.8787C31.8553 43.535 31.2146 43.535 30.7415 43.8787L31.1823 44.4855L30.7415 43.8787L25.0629 48.0044L27.2319 41.3289C27.4127 40.7727 27.2147 40.1634 26.7416 39.8196L21.063 35.6939H28.0821C28.6669 35.6939 29.1852 35.3174 29.3659 34.7612ZM24.9202 48.4438L24.9202 48.4436L24.9202 48.4438Z" stroke="#FF6000" stroke-width="1.5"/>
</svg>
