<svg width="64" height="64" viewBox="0 0 64 64" fill="none" xmlns="http://www.w3.org/2000/svg">
<path d="M31.9999 0C16.1843 0 3.31738 12.8669 3.31738 28.6825V43.0582C3.31738 44.8494 4.77463 46.3066 6.56576 46.3066H7.74076V46.3757C7.74076 48.1669 9.19801 49.6241 10.9891 49.6241H13.2008C14.9919 49.6241 16.4491 48.1669 16.4491 46.3757V33.1057C16.4491 31.3146 14.9919 29.8574 13.2008 29.8574H10.9891C9.19801 29.8574 7.74076 31.3146 7.74076 33.1057V33.1749H5.39076V28.6824C5.39076 14.0101 17.3275 2.07325 31.9999 2.07325C46.6723 2.07325 58.609 14.01 58.609 28.6824V33.1749H56.2591V33.1057C56.2591 31.3146 54.8019 29.8574 53.0108 29.8574H50.7991C49.008 29.8574 47.5508 31.3146 47.5508 33.1057V46.3757C47.5508 48.1669 49.008 49.6241 50.7991 49.6241H53.0108C54.8019 49.6241 56.2591 48.1669 56.2591 46.3757V46.3066H56.3598C55.8466 53.5067 50.0333 59.2637 42.8096 59.6887C42.3684 58.4181 41.1598 57.5032 39.7408 57.5032H36.4233C35.2418 57.5032 34.2808 58.4644 34.2808 59.6457V61.8574C34.2808 63.0389 35.2419 63.9999 36.4233 63.9999H39.7408C41.178 63.9999 42.3995 63.0612 42.8263 61.7651C51.2404 61.3244 58.0069 54.558 58.4475 46.1439C59.7438 45.7169 60.6824 44.4955 60.6824 43.0582V28.6825C60.6824 12.8669 47.8155 0 31.9999 0ZM9.81413 33.1059C9.81413 32.458 10.3413 31.9309 10.9891 31.9309H13.2008C13.8486 31.9309 14.3758 32.458 14.3758 33.1059V46.3759C14.3758 47.0237 13.8486 47.5509 13.2008 47.5509H10.9891C10.3413 47.5509 9.81413 47.0237 9.81413 46.3759V33.1059ZM7.74076 35.2484V44.2332H6.56576C5.91788 44.2332 5.39076 43.7061 5.39076 43.0582V35.2484H7.74076ZM54.1856 46.3757C54.1856 47.0236 53.6585 47.5507 53.0106 47.5507H50.799C50.1511 47.5507 49.624 47.0236 49.624 46.3757V33.1057C49.624 32.4579 50.151 31.9307 50.799 31.9307H53.0106C53.6585 31.9307 54.1856 32.4579 54.1856 33.1057V46.3757ZM39.7408 61.9266H36.4233C36.3851 61.9266 36.3541 61.8956 36.3541 61.8575V59.6459C36.3541 59.6077 36.3851 59.5767 36.4233 59.5767H39.7408C40.3886 59.5767 40.9158 60.1037 40.9158 60.7517C40.9158 61.3997 40.3886 61.9266 39.7408 61.9266ZM58.609 43.0582C58.609 43.7061 58.0819 44.2332 57.434 44.2332H56.259V35.2484H58.6089L58.609 43.0582Z" fill="#454545"/>
<path d="M29.9613 35.0869L32 29.1053L34.0387 35.0869C34.2249 35.6331 34.7431 35.9718 35.2927 35.9718H41.7874L36.5644 39.5893C36.099 39.9116 35.8849 40.5036 36.0738 41.0575L38.088 46.9673L32.7633 43.2793C32.3059 42.9625 31.6941 42.9625 31.2367 43.2793L25.912 46.9673L27.9262 41.0575C28.115 40.5036 27.901 39.9116 27.4356 39.5893L22.2126 35.9718H28.7073C29.2569 35.9718 29.7751 35.6331 29.9613 35.0869Z" stroke="#FF6000" stroke-width="1.5"/>
</svg>
