<svg width="64" height="64" viewBox="0 0 64 64" fill="none" xmlns="http://www.w3.org/2000/svg">
<rect x="0.8" y="0.8" width="62.4" height="62.4" rx="31.2" stroke="#555555" stroke-width="1.6"/>
<path d="M40 16H24C19.5817 16 16 19.5817 16 24V40C16 44.4183 19.5817 48 24 48H40C44.4183 48 48 44.4183 48 40V24C48 19.5817 44.4183 16 40 16Z" stroke="#FF6000" stroke-width="1.6" stroke-linecap="round" stroke-linejoin="round"/>
<path d="M38.3988 30.992C38.5962 32.3236 38.3688 33.6835 37.7488 34.8784C37.1288 36.0733 36.1478 37.0423 34.9454 37.6475C33.7429 38.2527 32.3803 38.4633 31.0512 38.2495C29.7222 38.0356 28.4944 37.4081 27.5425 36.4563C26.5906 35.5044 25.9631 34.2766 25.7493 32.9475C25.5354 31.6185 25.7461 30.2558 26.3513 29.0534C26.9565 27.851 27.9254 26.87 29.1203 26.25C30.3152 25.63 31.6752 25.4025 33.0068 25.6C34.365 25.8014 35.6225 26.4343 36.5935 27.4053C37.5644 28.3762 38.1973 29.6337 38.3988 30.992Z" stroke="#FF6000" stroke-width="1.6" stroke-linecap="round" stroke-linejoin="round"/>
<path d="M40.8008 23.2H40.816" stroke="#FF6000" stroke-width="1.6" stroke-linecap="round" stroke-linejoin="round"/>
</svg>
