<svg width="64" height="64" viewBox="0 0 64 64" fill="none" xmlns="http://www.w3.org/2000/svg">
<rect x="0.8" y="0.8" width="62.4" height="62.4" rx="31.2" stroke="#555555" stroke-width="1.6"/>
<path d="M38.4008 25.6001C40.9469 25.6001 43.3887 26.6115 45.189 28.4119C46.9894 30.2122 48.0008 32.654 48.0008 35.2001V46.4001H41.6008V35.2001C41.6008 34.3514 41.2636 33.5375 40.6635 32.9374C40.0634 32.3372 39.2495 32.0001 38.4008 32.0001C37.5521 32.0001 36.7382 32.3372 36.138 32.9374C35.5379 33.5375 35.2008 34.3514 35.2008 35.2001V46.4001H28.8008V35.2001C28.8008 32.654 29.8122 30.2122 31.6126 28.4119C33.4129 26.6115 35.8547 25.6001 38.4008 25.6001Z" stroke="#FF6000" stroke-width="1.6" stroke-linecap="round" stroke-linejoin="round"/>
<path d="M22.4 27.2H16V46.4H22.4V27.2Z" stroke="#FF6000" stroke-width="1.6" stroke-linecap="round" stroke-linejoin="round"/>
<path d="M19.2 22.4C20.9673 22.4 22.4 20.9673 22.4 19.2C22.4 17.4327 20.9673 16 19.2 16C17.4327 16 16 17.4327 16 19.2C16 20.9673 17.4327 22.4 19.2 22.4Z" stroke="#FF6000" stroke-width="1.6" stroke-linecap="round" stroke-linejoin="round"/>
</svg>
