<svg xmlns="http://www.w3.org/2000/svg" width="64" height="64" viewBox="0 0 64 64" fill="none">
  <path d="M14.4997 25.2735L14.0347 25.3062C13.438 25.3481 12.8787 25.4025 12.355 25.4729C10.0099 25.7882 8.11213 26.4525 6.61548 27.949C5.11883 29.4459 4.45456 31.3435 4.13927 33.6885C3.83393 35.9597 3.83296 38.8603 3.83301 42.5203V42.8131C3.83296 46.473 3.83393 49.3737 4.13927 51.6448C4.45456 53.9899 5.11885 55.8875 6.61549 57.384L6.61552 57.3841C8.11216 58.8809 10.0099 59.5452 12.3549 59.8605C14.6261 60.1656 17.5268 60.1667 21.1867 60.1667H42.8127C46.4727 60.1667 49.3733 60.1656 51.6445 59.8605C53.9895 59.5452 55.8871 58.8809 57.384 57.3841C58.8806 55.8875 59.5449 53.9899 59.8601 51.6449C60.1653 49.3737 60.1663 46.473 60.1663 42.8131V42.5203C60.1663 38.8603 60.1653 35.9597 59.8601 33.6885C59.5449 31.3435 58.8806 29.4459 57.384 27.9491C57.384 27.949 57.384 27.949 57.3839 27.949M14.4997 25.2735L51.7111 24.9774C54.1114 25.3001 56.1322 25.9905 57.7375 27.5955L57.3839 27.949M14.4997 25.2735V24.8074V21.3333C14.4997 11.6684 22.3347 3.83334 31.9997 3.83334C41.6646 3.83334 49.4997 11.6684 49.4997 21.3333V24.8074V25.2735L49.9646 25.3062C50.5613 25.3481 51.1206 25.4025 51.6445 25.4729M14.4997 25.2735L51.6445 25.4729M57.3839 27.949C55.8871 26.4525 53.9895 25.7882 51.6445 25.4729M57.3839 27.949L51.6445 25.4729M45.9951 25.1758L46.4997 25.1805V24.6758V21.3333C46.4997 13.3252 40.0078 6.83334 31.9997 6.83334C23.9916 6.83334 17.4997 13.3252 17.4997 21.3333V24.6758V25.1805L18.0043 25.1758C18.9976 25.1667 20.0568 25.1666 21.1867 25.1667H42.8127C43.9426 25.1666 45.0018 25.1667 45.9951 25.1758ZM12.7547 28.4461L12.7547 28.4461C10.7422 28.7168 9.58307 29.2241 8.73679 30.0705C7.89057 30.9168 7.3831 32.0757 7.11253 34.0883C6.83618 36.1438 6.83301 38.8534 6.83301 42.6667C6.83301 46.48 6.83618 49.1895 7.11253 51.245C7.3831 53.2576 7.89057 54.4165 8.73679 55.2629C9.58307 56.1093 10.7422 56.6166 12.7547 56.8873L12.7547 56.8873C14.8101 57.1635 17.5196 57.1667 21.333 57.1667H42.6663C46.4797 57.1667 49.1892 57.1635 51.2447 56.8873L51.2447 56.8873C53.2573 56.6166 54.4162 56.1093 55.2626 55.2629C56.1089 54.4165 56.6162 53.2576 56.8869 51.2451L56.887 51.245C57.1631 49.1895 57.1663 46.48 57.1663 42.6667C57.1663 38.8533 57.1631 36.1439 56.887 34.0884L56.8869 34.0883C56.6162 32.0757 56.1089 30.9168 55.2626 30.0705C54.4162 29.2241 53.2573 28.7168 51.2447 28.4461L51.2447 28.4461C49.1892 28.1699 46.4797 28.1667 42.6663 28.1667H21.333C17.5196 28.1667 14.8101 28.1699 12.7547 28.4461ZM54.909 54.9093C54.1709 55.6475 53.1349 56.1285 51.1781 56.3917H12.8213C10.8646 56.1285 9.8284 55.6475 9.09037 54.9093C8.35234 54.1712 7.87114 53.1352 7.60808 51.1784C7.33725 49.164 7.33301 46.4944 7.33301 42.6667C7.33301 38.8389 7.33725 36.1693 7.60808 34.1549C7.87114 32.1981 8.35234 31.1621 9.09037 30.424C9.8284 29.6859 10.8646 29.2048 12.8213 28.9416C14.8356 28.6709 17.5052 28.6667 21.333 28.6667H42.6663C46.4941 28.6667 49.1637 28.6709 51.1781 28.9416C53.1349 29.2048 54.1709 29.6859 54.909 30.424C55.6471 31.1621 56.1282 32.1981 56.3914 34.1549C56.6621 36.1693 56.6663 38.8389 56.6663 42.6667C56.6663 46.4944 56.6621 49.164 56.3914 51.1784C56.1282 53.1352 55.6471 54.1712 54.909 54.9093Z" fill="#454545" stroke="white"/>
  <path d="M38.0533 47.3931C38.0533 48.7659 37.6013 49.8959 36.6973 50.7831C35.7933 51.6704 34.6215 52.1977 33.1818 52.3651V54.6H31.5998V52.3902C30.227 52.2898 29.0552 51.9131 28.0842 51.2602C27.13 50.6073 26.4353 49.7284 26 48.6236L28.0089 47.4684C28.5781 49.0253 29.775 49.9042 31.5998 50.1051V44.0282C30.8464 43.7604 30.2354 43.5176 29.7667 43.3C29.3147 43.0656 28.8376 42.7559 28.3353 42.3709C27.8331 41.9859 27.4564 41.5171 27.2053 40.9647C26.971 40.3955 26.8538 39.7426 26.8538 39.006C26.8538 37.65 27.3058 36.5451 28.2098 35.6913C29.1138 34.8376 30.2438 34.3437 31.5998 34.2098V32H33.1818V34.2349C34.1862 34.3688 35.0819 34.7204 35.8687 35.2896C36.6555 35.8587 37.2665 36.6288 37.7018 37.5998L35.7431 38.7047C35.2576 37.4826 34.4039 36.7544 33.1818 36.52V42.2956C33.9519 42.5801 34.5629 42.8313 35.0149 43.0489C35.4669 43.2665 35.9607 43.5762 36.4964 43.978C37.0321 44.363 37.4256 44.8401 37.6767 45.4093C37.9278 45.9785 38.0533 46.6398 38.0533 47.3931ZM29.164 39.006C29.164 39.6421 29.3565 40.1611 29.7416 40.5629C30.1266 40.9647 30.746 41.3413 31.5998 41.6929V36.4949C30.8632 36.5953 30.2689 36.8716 29.8169 37.3236C29.3816 37.7588 29.164 38.3196 29.164 39.006ZM33.1818 50.0549C33.9853 49.9377 34.6047 49.6447 35.04 49.176C35.492 48.6905 35.718 48.1046 35.718 47.4182C35.718 46.7319 35.5087 46.1878 35.0902 45.786C34.6884 45.3675 34.0523 44.9741 33.1818 44.6058V50.0549Z" fill="#FF6000"/>
</svg>