<svg width="64" height="64" viewBox="0 0 64 64" fill="none" xmlns="http://www.w3.org/2000/svg">
<g clip-path="url(#clip0_1027_1170)">
<path d="M61.44 32C61.44 15.7405 48.2595 2.56 32 2.56C15.7405 2.56 2.56 15.7405 2.56 32C2.56 48.2595 15.7405 61.44 32 61.44C48.2595 61.44 61.44 48.2595 61.44 32ZM64 32C64 49.6733 49.6733 64 32 64C14.3267 64 0 49.6733 0 32C0 14.3267 14.3267 0 32 0C49.6733 0 64 14.3267 64 32Z" fill="#454545"/>
<path d="M22.9894 41.0109L33.4313 35.0311C33.9674 34.7242 34.7243 33.9673 35.0313 33.4312L41.0113 22.989L30.5691 28.969C30.0334 29.2757 29.2762 30.033 28.9691 30.5689L22.9895 41.011L22.9894 41.0109ZM36.6879 34.3799C36.2122 35.2107 35.2108 36.212 34.38 36.6878L22.1323 43.7017C20.6047 44.5764 19.4233 43.3957 20.2985 41.8682L27.3126 29.6199C27.7885 28.7894 28.7899 27.7878 29.6203 27.3123L41.868 20.2984C43.3958 19.4235 44.5767 20.6044 43.7018 22.1323L36.6879 34.3799Z" fill="#FF6000"/>
<path d="M28.5147 29.8647L33.8138 35.1638C34.1866 35.5366 34.7909 35.5366 35.1637 35.1638C35.5365 34.791 35.5365 34.1867 35.1637 33.8139L29.8646 28.5148C29.4918 28.142 28.8875 28.142 28.5147 28.5148C28.1419 28.8876 28.1419 29.4919 28.5147 29.8647Z" fill="#FF6000"/>
</g>
<defs>
<clipPath id="clip0_1027_1170">
<rect width="64" height="64" fill="white"/>
</clipPath>
</defs>
</svg>
