<svg width="64" height="64" viewBox="0 0 64 64" fill="none" xmlns="http://www.w3.org/2000/svg">
<g id="package-ultrathin-outline-with-four-directions-arrows-svgrepo-com 2" clip-path="url(#clip0_1236_207)">
<g id="Group">
<g id="Group_2">
<path id="Vector" d="M63.5759 32.1608L58.9851 28.7179C58.6815 28.4898 58.3212 28.4431 58.0221 28.5927C57.7228 28.7425 57.5443 29.0585 57.5443 29.4381V31.0522H51.8473V23.0684C51.8473 22.1438 51.5603 21.2507 49.651 20.8801L34.7528 17.3816V10.9601H36.4959C36.8774 10.9601 37.194 10.7801 37.3416 10.4787C37.4891 10.1775 37.4376 9.81717 37.2035 9.51586L33.6387 4.91567C33.4346 4.65194 33.1256 4.4963 32.819 4.50446C32.5027 4.50687 32.2063 4.6616 32.0061 4.92865L28.5627 9.51948C28.3352 9.82306 28.2884 10.1828 28.4379 10.4821C28.5873 10.7815 28.9034 10.9602 29.2828 10.9602H30.897V17.3878L15.5861 21.115C14.608 21.3533 14.3906 21.8231 14.3804 22.1753C14.3704 22.5277 14.5603 23.0097 15.523 23.3037L30.9996 28.0356C31.0638 28.055 31.1287 28.0642 31.1923 28.0642C31.4753 28.0642 31.7365 27.8816 31.8234 27.5973C31.9302 27.2489 31.7339 26.88 31.3853 26.7732L16.5519 22.2383L31.7135 18.5476C32.3021 18.3692 32.209 18.2371 32.2171 17.9063V10.3001C32.2171 9.93552 31.9217 9.64025 31.5571 9.64025H30.1223L32.8311 6.02809L35.63 9.64025H34.0925C33.7279 9.64025 33.4325 9.93567 33.4325 10.0359V17.642C33.4325 18.3305 33.5533 18.4247 33.9417 18.5467L33.9473 18.5481C33.9536 18.5496 33.96 18.5514 33.9664 18.553L49.4152 22.2899C50.1214 22.4559 50.527 22.4218 50.527 23.0945V31.518C50.527 32.1338 50.6031 32.3722 51.1263 32.3722H58.2039C58.5685 32.3722 58.8639 32.0766 58.8639 31.712V30.2766L62.4762 32.9858L58.8639 35.7854V34.2474C58.8639 33.883 58.5685 33.5875 58.2039 33.5875H51.1263C50.7617 33.5875 50.527 33.7393 50.527 34.3909V40.9023C50.527 41.0498 50.3729 41.2607 50.2322 41.3055L34.4157 46.2586V31.2152C34.4157 30.8508 34.1203 30.5554 33.7559 30.5554C33.3913 30.5554 33.0959 30.8508 33.0959 31.2152V46.3708C33.0959 46.7915 33.2754 47.1638 33.588 47.3923C33.7915 47.5409 34.0362 47.6179 34.293 47.6179C34.4302 47.6179 34.571 47.5958 34.7104 47.5513L50.6327 42.5637C51.3248 42.343 51.847 41.6292 51.847 40.9026V34.9077H57.544V36.651C57.544 37.0326 57.724 37.3491 58.0253 37.4965C58.1388 37.5522 58.2608 37.5794 58.3846 37.5794C58.5894 37.5794 58.8003 37.5045 58.9883 37.3588L63.5885 33.7938C63.8523 33.5895 64.0021 33.2909 64.0003 32.9743C63.9976 32.6576 63.843 32.3613 63.5759 32.1608Z" fill="#454545"/>
<path id="Vector_2" d="M35.8082 53.0406H34.1941V50.9541C34.1941 50.5895 33.8987 50.2942 33.5343 50.2942C33.1697 50.2942 32.8743 50.5895 32.8743 50.9541V53.7006C32.8743 54.0652 33.1697 54.3605 33.5343 54.3605H34.9695L32.2603 57.9729L29.4613 54.3605H30.7346C31.0992 54.3605 31.3946 54.0652 31.3946 53.7006L31.3883 30.7871C31.3883 30.0584 30.8635 29.3462 30.1677 29.1298L14 24.1085C13.599 23.9841 13.1904 24.0443 12.8787 24.2742C12.5669 24.5038 12.3882 24.8763 12.3882 25.2958V31.1782H6.4558V29.4346C6.4558 29.053 6.27586 28.7367 5.97484 28.5891C5.67383 28.4415 5.31334 28.493 5.01157 28.7269L0.411537 32.2921C0.147509 32.4965 -0.00209134 32.7953 2.20932e-05 33.1116C0.00273936 33.4281 0.156869 33.7248 0.423916 33.9249L5.01535 37.3679C5.20118 37.5076 5.40844 37.5795 5.61028 37.5795C5.73693 37.5795 5.86238 37.551 5.97801 37.4931C6.27737 37.3435 6.4561 37.0273 6.4561 36.6479V35.0339H12.3876V41.6729C12.3876 42.4014 12.9123 43.114 13.6078 43.3297C13.6078 43.3297 29.9754 48.3977 30.0745 48.4059V53.0406H28.5955C28.2136 53.0406 27.8973 53.2206 27.75 53.5219C27.6019 53.8233 27.6537 54.1834 27.8875 54.4848L31.4523 59.0849C31.6547 59.3465 31.9506 59.4962 32.264 59.4962H32.2715C32.5881 59.4938 32.8846 59.3394 33.0846 59.0725L36.5281 54.4814C36.7556 54.1778 36.8029 53.8177 36.653 53.5187C36.5035 53.2195 36.1876 53.0406 35.8082 53.0406ZM30.0665 47.0596L13.9995 42.0695C13.8607 42.0263 13.7076 41.8187 13.7076 41.6731V34.4735C13.7076 34.192 13.6572 33.7139 12.8735 33.7139H5.79596C5.43139 33.7139 5.13596 34.0092 5.13596 34.3737V35.8092L1.52366 33.0999L5.13596 30.3005V31.8385C5.13596 32.2029 5.43139 32.4985 5.79596 32.4985C5.79596 32.4985 13.0174 32.4985 13.0477 32.4985C13.4123 32.4985 13.7077 32.3322 13.7077 31.8385L13.7094 25.4005L29.776 30.3911C29.9156 30.4341 30.0683 30.6416 30.0683 30.7875L30.0665 47.0596Z" fill="#FF6000"/>
</g>
</g>
</g>
<defs>
<clipPath id="clip0_1236_207">
<rect width="64" height="64" fill="white"/>
</clipPath>
</defs>
</svg>
