<svg width="64" height="64" viewBox="0 0 64 64" fill="none" xmlns="http://www.w3.org/2000/svg">
<path d="M58.6658 45.1199V53.1199C58.6689 53.8626 58.5167 54.5977 58.2192 55.2782C57.9217 55.9587 57.4853 56.5695 56.938 57.0716C56.3908 57.5736 55.7447 57.9559 55.0412 58.1938C54.3376 58.4317 53.5922 58.5201 52.8525 58.4533C44.6467 57.5616 36.7645 54.7577 29.8392 50.2666C23.396 46.1724 17.9334 40.7097 13.8392 34.2666C9.33245 27.3098 6.52782 19.3893 5.6525 11.1466C5.58587 10.4092 5.6735 9.66596 5.90984 8.96426C6.14617 8.26257 6.52603 7.61777 7.02521 7.07092C7.5244 6.52407 8.13198 6.08716 8.80928 5.78799C9.48658 5.48883 10.2187 5.33396 10.9592 5.33327H18.9592C20.2533 5.32053 21.5079 5.77881 22.4892 6.62269C23.4705 7.46656 24.1114 8.63846 24.2925 9.91993C24.6302 12.4801 25.2564 14.9939 26.1592 17.4133C26.518 18.3677 26.5956 19.405 26.3829 20.4023C26.1702 21.3995 25.6761 22.3149 24.9592 23.0399L21.5725 26.4266C25.3687 33.1027 30.8964 38.6305 37.5725 42.4266L40.9592 39.0399C41.6842 38.323 42.5996 37.8289 43.5968 37.6162C44.5941 37.4035 45.6314 37.4812 46.5858 37.8399C49.0052 38.7427 51.519 39.3689 54.0792 39.7066C55.3745 39.8893 56.5576 40.5418 57.4033 41.5399C58.2489 42.538 58.6983 43.8121 58.6658 45.1199Z" stroke="#fff" stroke-width="2" stroke-linecap="round" stroke-linejoin="round"/>
</svg>
