<svg width="64" height="64" viewBox="0 0 64 64" fill="none" xmlns="http://www.w3.org/2000/svg">
<path d="M8 27.7778C8 19.2508 8 14.9873 9.00672 13.553C10.0134 12.1187 14.0222 10.7465 22.0398 8.00203L23.5673 7.47917C27.7467 6.04856 29.8363 5.33325 32 5.33325C34.1637 5.33325 36.2533 6.04856 40.4328 7.47917L41.9603 8.00203C49.9779 10.7465 53.9867 12.1187 54.9933 13.553C56 14.9873 56 19.2508 56 27.7778C56 29.0655 56 30.4623 56 31.977C56 47.0116 44.696 54.3079 37.6037 57.406C35.68 58.2463 34.7181 58.6666 32 58.6666C29.2819 58.6666 28.32 58.2463 26.3962 57.406C19.3039 54.3079 8 47.0116 8 31.977C8 30.4623 8 29.0655 8 27.7778Z" stroke="#454545" stroke-width="2"/>
<path d="M25 33.2L29.2858 38L40 26" stroke="#FF6000" stroke-width="2" stroke-linecap="round" stroke-linejoin="round"/>
</svg>
