<svg width="180" height="180" viewBox="0 0 180 180" fill="none" xmlns="http://www.w3.org/2000/svg">
<path d="M52.1424 164.643C52.1792 164.823 52.222 165 52.2705 165.175C52.1936 165.001 52.1172 164.827 52.0414 164.653C52.0751 164.649 52.1087 164.646 52.1424 164.643Z" fill="#FF6000"/>
<path d="M106.692 52.7493C106.509 49.2354 106.068 45.7843 105.384 42.412C105.127 41.1492 104.837 39.8974 104.514 38.6575C104.449 38.4101 104.384 38.1633 104.316 37.9169C104.278 37.7765 104.24 37.6362 104.2 37.4961C104.879 37.8108 105.552 38.1346 106.221 38.4672C107.707 39.2066 109.167 39.9899 110.6 40.8153C112.55 41.9388 114.45 43.1403 116.295 44.4156C117.9 45.5251 119.464 46.6904 120.983 47.9088C121.453 48.2857 121.919 48.6677 122.38 49.0547C122.841 49.4413 123.298 49.8328 123.75 50.2292C124.662 51.0294 125.557 51.8494 126.433 52.6888C126.715 52.9589 126.995 53.2311 127.273 53.5052C127.51 53.7386 127.746 53.9735 127.98 54.2098C128.569 54.8047 129.149 55.4085 129.719 56.0211C130.553 56.9157 131.366 57.8289 132.16 58.7601C132.84 59.4257 133.448 60.1647 133.972 60.9641C134.319 61.4949 134.63 62.0523 134.899 62.6327C135.337 63.5778 135.667 64.5838 135.871 65.6345C135.996 66.2799 136.085 66.9421 136.113 67.6175C136.115 67.7672 136.114 67.9169 136.113 68.0668C136.113 68.0967 136.113 68.1267 136.113 68.1567C136.112 68.234 136.112 68.3113 136.113 68.3886C136.114 68.581 136.113 68.7736 136.113 68.9663C136.113 69.1773 136.114 69.3882 136.113 69.5988C136.113 69.6014 136.113 69.604 136.113 69.6066C136.106 69.6092 136.1 69.6118 136.113 69.6144C136.099 71.3167 136.113 72.9334 136.113 74.7323C136.113 77.4944 135.848 80.0823 135.07 81.7546C134.292 83.427 132.701 84.989 131.718 86.2063C131.691 86.2397 131.664 86.273 131.637 86.3064C131.121 86.9439 130.595 87.5735 130.06 88.1949C129.393 88.9706 128.711 89.7336 128.015 90.4836C127.822 90.6913 127.628 90.8981 127.434 91.1038C126.764 91.8106 126.082 92.5055 125.388 93.1881C125.537 91.9748 125.659 90.7533 125.754 89.5242C125.781 89.1742 125.806 88.8236 125.828 88.4724C125.897 87.4023 126.016 86.5083 126.101 85.2472C126.137 84.7215 126.15 84.3606 126.182 83.9004C126.196 83.7106 126.202 83.519 126.202 83.3258C126.202 83.1186 126.195 82.9132 126.179 82.7098C126.147 82.279 126.056 81.6405 125.858 80.9843C125.095 78.45 123.511 76.8578 121.36 75.9143C120.809 75.6724 120.136 75.3503 119.528 75.2359C116.672 74.388 113.84 73.8315 110.863 73.2961C110.522 73.2348 110.18 73.1756 109.838 73.1185C109.719 73.0988 109.601 73.0793 109.482 73.0601L109.478 73.0385L109.447 73.0543C108.39 72.8834 107.326 72.7327 106.256 72.6026C106.1 72.5836 105.944 72.5651 105.787 72.547C105.558 72.5204 105.328 72.4948 105.098 72.4702C105.047 72.4647 104.996 72.4593 104.944 72.4539C103.792 72.3326 102.632 72.2351 101.466 72.1621C101.303 72.1519 101.139 72.1422 100.976 72.1329C100.409 72.1008 99.8415 72.0745 99.272 72.054C98.5057 72.0264 97.7366 72.0093 96.965 72.0029C96.9278 72.0026 96.8906 72.0023 96.8534 72.002C96.6591 72.0007 96.4646 72 96.2699 72C95.4142 72 94.5616 72.0131 93.7122 72.0392C91.8727 72.0956 90.0485 72.2127 88.2415 72.3884C87.4725 72.4632 86.7067 72.5487 85.944 72.6446C85.5649 72.6923 85.1866 72.7426 84.8092 72.7954C84.0195 72.906 83.2335 73.0278 82.4513 73.1607C81.8856 73.2568 81.3218 73.3587 80.7601 73.4664L80.7177 73.4745C80.6821 73.4814 80.6465 73.4882 80.6109 73.4951C79.7862 73.6548 78.966 73.8268 78.1503 74.011C77.8551 74.0777 77.5604 74.1459 77.2664 74.2158C77.4211 74.1174 77.5762 74.0196 77.7316 73.9223C78.4372 73.4804 79.1501 73.0489 79.8699 72.6281C80.29 72.3825 80.7125 72.1406 81.1373 71.9024C81.3644 71.775 81.5922 71.6487 81.8206 71.5234C82.131 71.3533 82.4425 71.185 82.7552 71.0188L82.7973 70.9965C83.6876 70.5239 84.5877 70.0672 85.4972 69.6269C86.1895 69.2917 86.8873 68.9659 87.5904 68.6498C89.5844 67.7532 91.6207 66.9341 93.6956 66.1962C94.4179 65.9394 95.1449 65.6923 95.8764 65.4553C96.7902 65.1593 97.711 64.8788 98.6386 64.6143C99.8375 64.2724 101.048 63.9571 102.268 63.6692C103.666 63.3395 105.077 63.0457 106.501 62.7886L106.508 62.7168C106.513 62.6604 106.518 62.604 106.522 62.5475C106.698 60.5286 106.787 58.4874 106.787 56.427C106.787 56.1424 106.785 55.8582 106.782 55.5744C106.78 55.4231 106.778 55.2719 106.775 55.1209C106.762 54.4256 106.739 53.7326 106.706 53.0421C106.702 52.9444 106.697 52.8468 106.692 52.7493Z" fill="#FF6000"/>
<path d="M161.071 132.966C160.253 133.594 159.423 134.207 158.582 134.804C159.652 133.169 160.665 131.494 161.618 129.782C161.748 129.549 161.876 129.316 162.003 129.082C162.072 128.955 162.141 128.828 162.21 128.7C164.314 124.781 166.109 120.671 167.562 116.402C167.765 115.806 167.961 115.207 168.151 114.604C168.333 114.023 168.51 113.439 168.68 112.853C169.189 111.098 169.64 109.32 170.033 107.519C170.079 107.306 170.124 107.094 170.169 106.881C171.31 101.433 171.91 95.7868 171.91 90C171.91 87.9973 171.838 86.0113 171.697 84.0446C171.638 83.2276 171.568 82.414 171.485 81.6038C171.379 80.5561 171.252 79.5142 171.106 78.4786C170.898 76.9973 170.65 75.5288 170.363 74.0741C169.919 71.8185 169.382 69.5963 168.756 67.4113C168.211 65.5069 167.598 63.6308 166.921 61.7858C166.707 61.2024 166.487 60.6222 166.26 60.0451C165.347 57.7219 164.33 55.4504 163.217 53.2365C162.543 51.8971 161.833 50.5788 161.089 49.2828C159.804 47.0438 158.416 44.8712 156.932 42.7716C154.773 39.7171 152.41 36.817 149.863 34.0909C149.054 33.226 148.228 32.3786 147.383 31.5494C145.67 29.8672 143.883 28.2597 142.028 26.7323C133.392 19.6229 123.276 14.2471 112.212 11.1371C105.148 9.15181 97.6982 8.08989 90.0002 8.08989C89.4346 8.08989 88.8702 8.09561 88.3073 8.10703C88.1736 8.10975 88.0399 8.11277 87.9063 8.11613C84.7912 8.19429 81.7193 8.44637 78.6999 8.86303C78.3339 8.91353 77.9688 8.96644 77.6043 9.02176C71.365 9.96894 65.3567 11.62 59.6632 13.8915C57.7753 14.6447 55.922 15.4661 54.1064 16.3526C52.333 16.238 50.5442 16.1798 48.7418 16.1798C48.4131 16.1798 48.0849 16.1817 47.7571 16.1856C44.2497 16.2269 40.7954 16.4886 37.4074 16.9576C40.8322 14.4873 44.4378 12.2519 48.2004 10.2751C51.2605 8.66734 54.4246 7.23063 57.6798 5.97764C59.8458 5.14395 62.0521 4.3916 64.295 3.72433C69.3813 2.21116 74.656 1.13551 80.0754 0.541015C81.0362 0.435614 82.0016 0.345341 82.9713 0.27043C85.2908 0.0912544 87.6348 0 90.0002 0C91.2739 0 92.5413 0.0264577 93.802 0.0788485C95.5868 0.153019 97.3581 0.279158 99.1146 0.455803C116.841 2.23861 133.051 9.16555 146.228 19.7214C147.119 20.4355 147.996 21.1662 148.86 21.913C149.716 22.6543 150.559 23.4115 151.387 24.1841C159.07 31.3535 165.497 39.8524 170.301 49.3143C171.778 52.2242 173.102 55.2251 174.261 58.3065C175.334 61.1574 176.266 64.0771 177.05 67.0572C177.376 68.2971 177.676 69.5475 177.949 70.8077C178.274 72.3023 178.562 73.8107 178.811 75.3319C179.402 78.9367 179.778 82.6136 179.928 86.349C179.966 87.313 179.989 88.2808 179.997 89.2523C179.999 89.5013 180 89.7505 180 90C180 100.207 178.301 110.016 175.171 119.162C174.935 119.456 174.697 119.748 174.457 120.039C173.681 120.98 172.885 121.903 172.069 122.808C171.48 123.459 170.882 124.102 170.273 124.734C169.182 125.869 168.058 126.973 166.903 128.043C165.639 129.214 164.338 130.346 163.002 131.437C162.595 131.77 162.184 132.099 161.769 132.424C161.537 132.606 161.305 132.787 161.071 132.966Z" fill="#FF6000"/>
<path d="M107.702 31.0646C110.735 33.0247 113.631 35.1797 116.37 37.512C114.419 36.606 112.427 35.7745 110.396 35.0213C107.865 34.0823 105.274 33.2649 102.632 32.5761C102.503 32.5425 102.374 32.5091 102.245 32.4761C100.768 32.099 99.2758 31.762 97.7686 31.4663C97.8619 31.8664 97.9524 32.2675 98.0399 32.6698C98.1276 33.0732 98.2123 33.4777 98.2941 33.8832C98.3772 34.2954 98.4572 34.7087 98.534 35.1231C98.8086 36.6032 99.0434 38.0974 99.2372 39.6043C99.4515 41.2701 99.6157 42.9515 99.7283 44.6471C99.8106 45.8853 99.8653 47.1311 99.8919 48.3837C99.2998 47.3818 98.6869 46.3936 98.0539 45.4197C97.0342 43.8509 95.9623 42.3193 94.8405 40.8272C93.857 39.5189 92.8352 38.241 91.7768 36.9952C90.2232 35.1666 88.5908 33.407 86.8847 31.7219C86.2919 31.1364 85.6903 30.5599 85.08 29.9926C80.5813 25.8109 75.6117 22.129 70.2595 19.0351C69.7557 18.7439 69.2486 18.4579 68.7382 18.1772C78.3337 18.8057 87.4783 21.0866 95.89 24.738C97.3705 25.3806 98.8282 26.0657 100.262 26.7917C102.543 27.947 104.763 29.2059 106.915 30.5622C107.178 30.7282 107.441 30.8957 107.702 31.0646Z" fill="#454545"/>
<path fill-rule="evenodd" clip-rule="evenodd" d="M18.4403 35.4111C20.6339 32.5399 22.9964 29.8047 25.5128 27.2201C29.133 25.3342 32.9118 23.7107 36.8238 22.375C39.2204 21.6962 41.6711 21.2081 44.1663 20.9236C44.8613 20.8443 45.5598 20.7808 46.2615 20.7334C47.284 20.6644 48.3134 20.6294 49.349 20.6294C53.9483 20.6294 58.4249 21.319 62.7219 22.6238C64.5952 23.1926 66.4343 23.8783 68.2346 24.6748C71.4898 26.1149 74.618 27.917 77.5914 30.0447C77.7282 30.1426 77.8648 30.2413 78.001 30.3406C78.5704 30.7558 79.134 31.1829 79.6917 31.6219C82.594 33.9062 85.3344 36.5082 87.8848 39.3914C88.7641 40.3855 89.6209 41.413 90.4539 42.4723C91.7127 44.0732 92.9173 45.7469 94.0638 47.4883C95.6916 49.9608 97.2022 52.5697 98.5843 55.3001C98.747 55.6216 98.908 55.9448 99.0671 56.2696C99.2462 56.635 99.4229 57.0025 99.5974 57.3722C99.5777 57.5978 99.5571 57.8232 99.5356 58.0483C99.3581 58.1358 99.1812 58.2242 99.0049 58.3136C96.7953 58.9625 94.5453 59.5168 92.2595 59.9718C92.2129 59.9811 92.1663 59.9903 92.1196 59.9995C90.3273 60.3529 88.513 60.6452 86.6791 60.8743C85.9021 60.9713 85.1215 61.057 84.3376 61.1312C81.9269 61.3592 79.4845 61.4782 77.0153 61.4832L76.9852 61.4832L76.9231 61.4833L76.8546 61.4833C74.189 61.4833 71.5545 61.3504 68.9573 61.0909C68.5292 61.0481 68.1022 61.0019 67.6762 60.9523C67.1309 60.8887 66.5873 60.8196 66.0455 60.745C64.4435 60.5243 62.857 60.2552 61.2873 59.9393C59.0321 59.4854 56.8119 58.9348 54.6311 58.2921C54.3067 58.1965 53.9832 58.0988 53.6605 57.9991C50.9536 57.1628 48.3092 56.1839 45.7361 55.0713C45.6244 55.023 45.5128 54.9744 45.4014 54.9256C44.9021 54.66 44.3837 54.4257 43.8488 54.2252C42.5815 53.7504 41.2213 53.4655 39.8031 53.4054C39.6152 53.3975 39.4264 53.3934 39.2366 53.3934C38.5999 53.3934 37.9738 53.4387 37.3612 53.5262C36.3058 53.6066 35.2577 53.7233 34.2178 53.8752C33.8738 53.9255 33.5306 53.9796 33.1883 54.0376C32.2554 54.1956 31.3292 54.3821 30.4104 54.5963C26.7453 55.4508 23.1973 56.747 19.7997 58.4414C17.3732 59.6515 15.0235 61.0647 12.7626 62.665C8.74813 65.5067 5.01409 68.9384 1.62862 72.8713C2.29264 69.4251 3.15325 66.0489 4.19829 62.7548C4.43262 62.0162 4.67624 61.2817 4.92899 60.5514C7.8737 52.0434 12.0587 44.1145 17.2678 36.9808C17.6531 36.4532 18.0439 35.9299 18.4403 35.4111ZM68.1239 50.8726C71.7965 50.8726 75.1161 49.3612 77.4946 46.9265C70.8351 42.8354 63.2378 40.1225 55.1 39.1854C54.0288 39.062 52.9483 38.9694 51.8593 38.9085C50.8259 38.8507 49.7849 38.8214 48.7371 38.8214C48.1477 38.8214 47.5604 38.8306 46.9755 38.849C48.5259 38.9493 50.0028 39.3193 51.3598 39.9126C53.5139 40.8544 55.3658 42.3588 56.7296 44.24C56.9683 44.6597 57.2295 45.0649 57.5116 45.454C59.8919 48.7372 63.7585 50.8726 68.1239 50.8726Z" fill="#454545"/>
<path d="M80.9048 138.474C79.2939 136.394 77.8335 134.191 76.54 131.881C78.613 133.67 80.8252 135.302 83.1582 136.758C86.01 138.538 89.0423 140.056 92.2214 141.278C92.3164 141.314 92.4115 141.351 92.5067 141.387C92.6624 141.445 92.8184 141.503 92.9747 141.561C94.2411 142.026 95.53 142.444 96.8394 142.813C96.8721 142.822 96.9048 142.831 96.9375 142.841C96.8743 142.748 96.8115 142.654 96.7489 142.561C96.1773 141.707 95.6296 140.835 95.107 139.947C94.9823 139.735 94.859 139.523 94.7372 139.309C93.8569 137.765 93.0515 136.172 92.3261 134.536C92.6888 134.754 93.0544 134.969 93.4227 135.181C94.4338 135.763 95.4661 136.322 96.5183 136.857C97.1863 137.197 97.8623 137.527 98.546 137.847C98.8997 138.012 99.2555 138.175 99.6133 138.335C99.6698 138.36 99.7263 138.386 99.7829 138.411C100.903 138.909 102.043 139.38 103.202 139.825C104.059 140.154 104.926 140.467 105.804 140.766C106.275 140.926 106.75 141.083 107.227 141.234C110.328 142.219 113.544 143.015 116.854 143.603C116.961 143.622 117.068 143.64 117.175 143.659C117.808 143.769 118.445 143.871 119.086 143.965C119.404 144.013 119.724 144.058 120.044 144.101C122.093 144.377 124.174 144.575 126.283 144.69C127.056 144.732 127.834 144.763 128.614 144.783C129.291 144.8 129.97 144.809 130.652 144.809C131.045 144.809 131.437 144.806 131.828 144.8C135.035 144.753 138.186 144.516 141.263 144.1C141.254 144.133 141.244 144.165 141.235 144.197C141.355 144.15 141.474 144.103 141.594 144.055C142.866 143.878 144.126 143.67 145.372 143.433C147.666 142.996 149.915 142.46 152.109 141.829C152.257 141.787 152.404 141.744 152.552 141.701C152.989 141.572 153.424 141.44 153.857 141.304C155.626 140.748 157.359 140.13 159.05 139.453C159.924 139.104 160.786 138.739 161.637 138.359C162.541 137.955 163.433 137.534 164.31 137.096L164.319 137.092C165.368 136.569 166.397 136.022 167.406 135.452C166.555 136.726 165.65 137.961 164.695 139.154C163.749 140.336 162.754 141.477 161.712 142.573C161.485 142.812 161.256 143.048 161.025 143.283C159.226 145.108 157.297 146.804 155.252 148.356C154.269 149.102 153.26 149.814 152.226 150.491C150.487 151.63 148.678 152.67 146.806 153.603C144.705 154.65 142.525 155.562 140.277 156.328C139.635 156.45 138.989 156.563 138.342 156.67C138.023 156.722 137.704 156.772 137.385 156.821C136.753 156.917 136.119 157.005 135.483 157.087C132.047 157.526 128.544 157.753 124.989 157.753C124.953 157.753 124.917 157.753 124.881 157.753C123.707 157.751 122.539 157.725 121.377 157.674C120.506 157.637 119.638 157.585 118.774 157.52C116.343 157.338 113.942 157.05 111.576 156.66C111.257 156.607 110.939 156.553 110.622 156.497C110.493 156.474 110.364 156.451 110.235 156.427C109.355 156.267 108.48 156.093 107.611 155.905C107.379 155.855 107.147 155.804 106.916 155.752C105.913 155.526 104.917 155.282 103.928 155.02C102.48 154.636 101.048 154.213 99.6321 153.752C99.5719 153.723 99.5118 153.693 99.4517 153.663C98.779 153.33 98.1144 152.983 97.4582 152.623C97.2194 152.492 96.9816 152.359 96.745 152.224C95.5255 151.53 94.336 150.79 93.179 150.004C92.8734 149.797 92.57 149.586 92.2689 149.373C91.1152 148.554 89.9955 147.691 88.9123 146.786C88.8094 146.7 88.7069 146.614 88.6047 146.527C87.7896 145.835 86.9955 145.119 86.2237 144.381C84.3086 142.548 82.5301 140.573 80.9048 138.474Z" fill="#454545"/>
<path d="M92.8448 76.3141C92.2014 77.1826 91.5826 78.0706 90.9895 78.977C90.4345 79.8253 89.9019 80.6897 89.3927 81.5693C88.8743 82.4648 88.3802 83.3761 87.9111 84.3023C87.7933 84.5349 87.677 84.7685 87.5624 85.0031C87.4597 85.213 87.3584 85.4237 87.2584 85.6351C87.2026 85.6886 87.1469 85.7423 87.0914 85.7962C87.1296 85.7794 87.1678 85.7626 87.2061 85.7459C84.9653 90.5076 83.3789 95.6387 82.5627 101.023C82.1464 103.77 81.9305 106.583 81.9305 109.446C81.9305 110.01 81.9389 110.572 81.9555 111.132C82.0032 112.736 82.1186 114.323 82.2989 115.889C82.5635 118.188 82.968 120.444 83.5036 122.649C84.1818 125.441 85.0703 128.151 86.1513 130.761C81.2275 126.946 77.0291 122.506 73.7443 117.595C73.6047 117.386 73.4667 117.177 73.3304 116.967C73.1454 116.681 72.9634 116.394 72.7846 116.105C72.7623 116.383 72.7423 116.661 72.7248 116.94L72.7209 117.004C72.6938 117.444 72.6727 117.886 72.6576 118.33C72.6391 118.875 72.6298 119.423 72.6298 119.973C72.6298 121.327 72.6863 122.668 72.7971 123.994C72.9555 125.888 73.2247 127.751 73.5982 129.576C74.433 133.654 75.7889 137.541 77.5933 141.166C78.0249 142.033 78.4822 142.885 78.9641 143.721C79.0735 143.911 79.1842 144.1 79.2961 144.288C79.8225 145.173 80.3767 146.039 80.9576 146.885C81.9916 148.391 83.11 149.835 84.306 151.21C85.0371 152.05 85.7972 152.864 86.5848 153.651C87.3777 154.443 88.1984 155.207 89.0454 155.942C89.475 156.315 89.9114 156.68 90.3544 157.037C91.9637 158.336 93.6594 159.531 95.4314 160.614C96.7581 161.424 98.1277 162.171 99.5359 162.851C99.6549 162.909 99.7742 162.966 99.8938 163.022C100.524 163.32 101.161 163.604 101.806 163.874C102.546 164.185 103.297 164.477 104.056 164.75C104.087 164.761 104.117 164.773 104.148 164.784C106.151 165.5 108.215 166.086 110.331 166.531C110.677 166.604 111.024 166.673 111.373 166.738C113.53 167.141 115.738 167.398 117.986 167.499C118.557 167.524 119.13 167.54 119.705 167.545C119.851 167.546 119.998 167.547 120.144 167.547C122.902 167.547 125.605 167.312 128.234 166.86C129.339 166.67 130.43 166.442 131.507 166.178C131.74 166.121 131.971 166.062 132.202 166.001C133.251 165.727 134.286 165.417 135.305 165.074C136.502 164.671 137.677 164.221 138.829 163.727L138.921 163.688C143.431 161.755 146.837 160.295 150.503 157.111C147.343 159.985 143.979 162.637 140.434 165.043C139.626 165.591 138.809 166.127 137.982 166.649C133.492 169.487 128.734 171.939 123.754 173.957C123.824 173.895 123.895 173.832 123.965 173.77C120.969 175.126 117.825 176.212 114.564 176.999C113.176 177.333 111.767 177.613 110.339 177.837C107.638 178.259 104.869 178.479 102.048 178.479C100.391 178.479 98.7524 178.403 97.1341 178.255C96.7746 178.222 96.416 178.185 96.0586 178.145C94.7364 177.997 93.4288 177.801 92.1376 177.557C91.8722 177.507 91.6075 177.455 91.3434 177.402C90.5875 177.247 89.8374 177.077 89.0934 176.891C88.8854 176.839 88.6779 176.785 88.4709 176.731C87.802 176.555 87.1382 176.366 86.4799 176.165C85.6637 175.916 84.8558 175.647 84.0567 175.36C82.9247 174.954 81.8104 174.51 80.7154 174.03C78.6812 173.139 76.7133 172.125 74.8211 170.996C74.1318 170.585 73.4525 170.159 72.7837 169.718C71.0459 168.572 69.3791 167.327 67.7913 165.991C67.0555 165.372 66.3366 164.733 65.6356 164.075L65.6032 164.045C65.5831 164.026 65.563 164.007 65.5429 163.988C65.1866 163.652 64.8348 163.312 64.4878 162.966C63.4384 161.922 62.4323 160.834 61.4723 159.705C62.109 160.901 62.7899 162.07 63.5127 163.21C63.7032 163.51 63.8966 163.808 64.0929 164.105C64.1909 164.253 64.2897 164.4 64.3892 164.547C65.1729 165.704 66.0009 166.829 66.8707 167.92C67.2827 168.436 67.7041 168.945 68.1347 169.445C68.6741 170.072 69.2279 170.687 69.7955 171.288C71.4444 173.034 73.2098 174.669 75.0794 176.18C75.3874 176.429 75.6983 176.675 76.0119 176.917C76.6122 177.38 77.2226 177.831 77.8427 178.269C78.0222 178.396 78.2024 178.522 78.3835 178.646C79.0619 179.113 79.7516 179.564 80.4521 180C78.6436 179.809 76.851 179.564 75.076 179.267C72.9921 178.918 70.9325 178.497 68.8998 178.008C68.517 177.916 68.1351 177.821 67.7542 177.724C67.3015 177.608 66.8501 177.49 66.4002 177.367C66.2408 177.288 66.0819 177.208 65.9235 177.127L65.9028 177.116C64.3235 176.308 62.7897 175.423 61.3064 174.466C59.3264 173.189 57.4364 171.784 55.648 170.263C55.0604 169.764 54.4838 169.251 53.9185 168.727C53.9025 168.708 53.8865 168.689 53.8706 168.67C53.6995 168.463 53.5383 168.249 53.3879 168.026C53.013 167.245 52.65 166.458 52.2992 165.664C52.2507 165.489 52.2079 165.311 52.1711 165.131C52.1375 165.135 52.1039 165.138 52.0702 165.141C51.6985 164.284 51.3411 163.419 50.9981 162.547L51.0342 162.556L51.1008 162.572C51.0615 162.551 51.0222 162.529 50.983 162.508C49.5348 158.82 48.3459 155.001 47.4388 151.073C47.3029 150.485 47.1733 149.894 47.05 149.301C45.9254 143.885 45.3343 138.274 45.3343 132.524C45.3343 131.728 45.3457 130.934 45.3682 130.143C45.3904 129.363 45.4235 128.586 45.4673 127.812C45.6445 124.681 45.9972 121.597 46.5155 118.57C47.2861 119.564 48.079 120.541 48.8935 121.498C49.9417 122.729 51.0257 123.93 52.1438 125.097C52.4076 125.372 52.6734 125.646 52.9411 125.918C53.4471 126.431 53.9599 126.938 54.4792 127.439C54.8471 127.793 55.2183 128.144 55.5928 128.492C56.7994 129.612 58.0398 130.696 59.3123 131.742C59.1607 130.066 59.0832 128.369 59.0832 126.654C59.0832 126.313 59.0862 125.973 59.0923 125.634C59.0965 125.402 59.1021 125.17 59.1091 124.938C59.1455 123.733 59.2202 122.537 59.332 121.352C59.4786 119.799 59.6889 118.264 59.9602 116.751C60.3351 114.66 60.8265 112.61 61.4275 110.607C61.4921 110.392 61.558 110.177 61.6252 109.963C61.7958 109.419 61.9745 108.878 62.1612 108.341C63.0516 105.781 64.1236 103.305 65.3617 100.93C65.6774 100.324 66.0041 99.725 66.3412 99.1325C67.9994 96.2187 69.9128 93.4694 72.0509 90.9151C74.2016 88.3457 76.5797 85.9735 79.1542 83.8298C80.9901 82.3011 82.9258 80.8884 84.9502 79.6032C85.5969 79.1926 86.2528 78.7949 86.9173 78.4107C87.3528 78.1588 87.7921 77.9127 88.235 77.6724C89.154 77.1739 90.0885 76.7005 91.0378 76.2532C91.5177 76.0271 92.0014 75.8076 92.4887 75.595C92.9302 75.4023 93.3747 75.2152 93.8221 75.0337C93.5943 75.3234 93.3694 75.6154 93.1472 75.9096C93.0458 76.044 92.945 76.1788 92.8448 76.3141Z" fill="#454545"/>
<path d="M14.0936 118.466C13.8545 118.65 13.6171 118.837 13.3814 119.025C12.744 119.534 12.1186 120.058 11.5056 120.595C9.937 121.97 8.44982 123.435 7.05221 124.983C8.16117 121.948 9.36438 118.805 10.8102 115.949C11.1077 115.362 11.4122 114.778 11.7234 114.199C13.7222 110.477 16.0004 106.927 18.5299 103.578C19.0912 102.835 19.6649 102.102 20.2506 101.379C21.115 100.312 22.0057 99.2668 22.9217 98.245C25.7687 95.0689 28.8602 92.1163 32.1665 89.417C34.1024 87.8364 36.1121 86.3427 38.1894 84.9416C39.8474 83.8234 41.5485 82.7642 43.2898 81.7672C45.3971 80.5605 47.5632 79.4448 49.7827 78.4253C49.72 78.5325 49.6559 78.6386 49.5903 78.7438C50.1939 78.3819 50.8053 78.0316 51.4242 77.6932C54.4892 76.3665 57.6513 75.2217 60.8969 74.2724C62.1407 73.9086 63.3967 73.5735 64.6643 73.2679C65.3326 73.1067 66.0041 72.9538 66.6787 72.8091C67.8284 72.5627 68.987 72.3403 70.1539 72.1426C70.6428 72.0598 71.1332 71.9813 71.625 71.9072C73.6255 71.6058 75.6497 71.3767 77.6948 71.2227C76.9274 71.9664 76.1745 72.7251 75.4366 73.4982C74.9424 74.016 74.4549 74.5403 73.9742 75.0709C72.8902 76.2675 71.841 77.4964 70.8284 78.7558C70.5647 79.0836 70.3036 79.4135 70.045 79.7455C68.9441 81.1585 67.8885 82.6085 66.8804 84.0934C66.6488 84.4346 66.4196 84.7777 66.193 85.1226C66.1264 85.224 66.0599 85.3255 65.9937 85.4272C65.8684 85.6199 65.7438 85.8131 65.62 86.0069C64.8667 87.1861 64.1427 88.3859 63.4491 89.6053C61.6344 92.7955 60.0279 96.1195 58.6479 99.5588C57.5253 102.356 56.5527 105.23 55.7399 108.171C55.0741 110.579 54.5156 113.032 54.0698 115.524C54.0698 115.524 51.4804 112.068 50.6877 110.365C50.2423 109.408 49.8149 108.441 49.4059 107.465C49.3423 107.313 49.2791 107.161 49.2164 107.009L49.2115 106.997C48.9917 106.463 48.7775 105.926 48.5688 105.386C48.2192 106.053 47.8785 106.724 47.5469 107.401C46.587 109.36 45.703 111.363 44.8987 113.407C44.6768 113.971 44.4609 114.538 44.2511 115.108C42.6168 119.549 41.3564 124.171 40.5079 128.936C40.4009 129.537 40.3005 130.14 40.2067 130.745C39.5677 134.867 39.2361 139.092 39.2361 143.393C39.2361 143.866 39.2401 144.338 39.2481 144.809C39.2464 144.908 39.2449 145.007 39.2436 145.106C39.2386 145.478 39.2361 145.851 39.2361 146.225C39.2361 146.831 39.2427 147.436 39.2558 148.04C39.2666 148.536 39.2818 149.031 39.3013 149.524C39.3692 151.237 39.4897 152.936 39.6612 154.621C39.7786 155.774 39.9199 156.92 40.0847 158.059C40.3732 160.053 41.2586 163.921 41.8653 165.944C38.3365 162.743 34.5362 157.099 31.9667 153.063C30.6879 151.054 29.54 148.954 28.5349 146.774C28.2124 146.075 27.9046 145.367 27.612 144.652C27.2265 143.71 26.8673 142.755 26.5352 141.787C25.4647 138.667 24.6756 135.416 24.1983 132.065C24.1875 131.989 24.177 131.914 24.1666 131.839C23.907 129.959 23.7456 128.048 23.6874 126.11C23.3068 128.014 23.0275 129.955 22.8556 131.926C22.8521 131.965 22.8487 132.005 22.8453 132.045C22.7172 133.552 22.6518 135.077 22.6518 136.618V136.633C22.6524 138.602 22.7597 140.545 22.9682 142.458C23.0553 143.258 23.1601 144.051 23.2821 144.839C23.241 144.823 23.1999 144.806 23.1587 144.789C23.2058 144.844 23.2529 144.9 23.3001 144.955C23.6863 147.413 24.2405 149.815 24.9506 152.15L24.9722 152.22C21.7933 148.899 18.8663 145.334 16.222 141.557C15.9915 141.228 15.6886 140.777 15.4769 140.35C15.1615 139.714 14.9082 138.16 14.6755 137.045C14.3278 135.379 14.0578 133.684 13.8696 131.965C13.8484 131.771 13.8283 131.577 13.8092 131.383C13.7059 130.333 13.6331 129.275 13.5916 128.209C13.5644 127.51 13.5507 126.807 13.5507 126.101C13.5507 124.131 13.6576 122.187 13.8658 120.272C13.9317 119.667 14.0076 119.065 14.0936 118.466Z" fill="#454545"/>
<path d="M62.7751 69.5354C58.9449 70.075 55.2036 70.891 51.5719 71.9628C51.4338 72.0035 51.2958 72.0447 51.1579 72.0862C48.3991 72.917 45.7043 73.8956 43.0827 75.0127C40.3162 76.1916 37.6314 77.5247 35.0388 79.0014C33.4891 79.884 31.9724 80.818 30.491 81.8009C30.3809 81.8739 30.271 81.9473 30.1612 82.0209C24.1353 86.063 18.7005 90.9182 14.014 96.4294C13.2028 97.3834 12.4139 98.3571 11.6483 99.3496C10.7653 100.494 9.91313 101.664 9.09315 102.858C6.82149 106.165 4.79665 109.655 3.04528 113.301C1.99215 109.361 1.19971 105.314 0.687545 101.181C0.233649 97.5175 -0.000100469 93.7861 -0.000100469 90.0002C-0.000100469 89.2974 0.00794794 88.5965 0.0239707 87.8975C0.807209 86.5627 1.62311 85.2622 2.47007 83.9982C4.10538 81.5576 5.85655 79.2529 7.71235 77.0987C8.27421 76.4465 8.84567 75.8081 9.42639 75.1839C14.5667 69.6588 20.4341 65.2464 26.8129 62.2287C27.7369 61.7916 28.6716 61.3837 29.6164 61.006C30.7903 60.5367 31.9798 60.1138 33.1835 59.7392C33.8508 59.5314 34.5225 59.3385 35.1984 59.1607C35.7849 59.0064 36.3746 58.8634 36.9672 58.732C37.4465 58.679 37.9335 58.6519 38.4269 58.6519C40.0866 58.6519 41.6745 58.9594 43.1366 59.5207C43.6071 59.7759 44.0805 60.0263 44.5567 60.2721L44.9424 60.4698C45.2036 60.6028 45.4657 60.7343 45.7285 60.8645C47.7683 61.8741 49.8582 62.7977 51.9936 63.6304L52.0652 63.6583C55.8746 65.1396 59.8282 66.3319 63.8992 67.2084C64.6747 67.3753 65.4545 67.5308 66.2383 67.6747C68.1585 68.0271 70.1032 68.3096 72.0696 68.5195C73.0162 68.6206 73.9678 68.7048 74.9242 68.7718C74.5568 68.7668 74.1887 68.7642 73.8201 68.7642C73.1832 68.7642 72.548 68.7718 71.9147 68.7869C69.8401 68.8363 67.7853 68.9663 65.7536 69.1738C64.7551 69.2757 63.7621 69.3964 62.7751 69.5354Z" fill="#454545"/>
<path d="M99.7731 85.3578C99.4992 86.2645 99.2627 87.1863 99.0652 88.1215C98.5915 90.3655 98.343 92.687 98.343 95.0636C98.343 99.3967 99.1692 103.546 100.68 107.378C101.362 109.108 102.183 110.773 103.132 112.361C103.778 113.444 104.484 114.492 105.245 115.499C105.48 115.811 105.72 116.118 105.965 116.421C108.493 119.549 111.562 122.261 115.04 124.429C115.29 124.585 115.542 124.738 115.797 124.888C118.389 126.42 121.196 127.655 124.165 128.543C127.665 129.589 131.39 130.153 135.253 130.153C136.466 130.153 137.666 130.098 138.849 129.989C141.437 129.751 143.947 129.259 146.35 128.54C147.094 128.317 147.827 128.073 148.549 127.808C151.28 126.805 153.914 125.646 156.287 124.086C153.994 127.217 151.137 130.017 147.81 132.286C147.699 132.361 147.589 132.436 147.478 132.51C144.038 134.801 140.132 136.572 135.91 137.69C132.562 138.576 129.015 139.052 125.343 139.052C123.538 139.052 121.763 138.937 120.027 138.715C115.901 138.187 111.995 137.053 108.429 135.417C107.835 135.145 107.251 134.859 106.677 134.56C105.532 133.963 104.427 133.313 103.365 132.614C102.847 132.272 102.339 131.918 101.841 131.553C101.425 131.248 101.017 130.935 100.617 130.614C99.4159 129.652 98.2868 128.62 97.2372 127.527C96.3707 126.624 95.5583 125.679 94.8046 124.696C93.1134 122.49 91.7178 120.09 90.6682 117.543C89.222 114.033 88.4329 110.243 88.4329 106.288C88.4329 106.218 88.4331 106.147 88.4336 106.076C88.4555 103.014 88.9507 100.051 89.8575 97.2429C90.3335 95.7688 90.9229 94.3372 91.6168 92.9561C93.4588 89.29 96.0372 85.9796 99.185 83.1728C99.8328 82.5952 100.505 82.039 101.199 81.5054C100.648 82.7544 100.171 84.0402 99.7731 85.3578Z" fill="#454545"/>
</svg>
