<svg width="202" height="56" viewBox="0 0 202 56" fill="none" xmlns="http://www.w3.org/2000/svg">
<path d="M16.223 51.2222C16.2345 51.2781 16.2478 51.3334 16.2629 51.3879C16.2389 51.3338 16.2152 51.2796 16.1916 51.2252C16.2021 51.2242 16.2126 51.2232 16.223 51.2222Z" fill="#FF6000"/>
<path d="M33.1939 16.4109C33.1372 15.3177 32.9998 14.244 32.7869 13.1948C32.7072 12.802 32.6169 12.4125 32.5164 12.0268C32.4963 11.9498 32.4758 11.873 32.4549 11.7964C32.4431 11.7527 32.431 11.709 32.4189 11.6654C32.63 11.7634 32.8395 11.8641 33.0474 11.9675C33.5097 12.1976 33.964 12.4413 34.4098 12.6981C35.0166 13.0476 35.6077 13.4214 36.1817 13.8182C36.681 14.1634 37.1674 14.5259 37.6401 14.9049C37.7863 15.0222 37.9312 15.1411 38.0748 15.2615C38.2182 15.3817 38.3602 15.5035 38.5009 15.6269C38.7848 15.8758 39.0632 16.1309 39.3357 16.3921C39.4234 16.4761 39.5106 16.5608 39.5971 16.646C39.6708 16.7187 39.744 16.7917 39.8168 16.8653C40.0001 17.0503 40.1805 17.2382 40.3581 17.4288C40.6174 17.7071 40.8705 17.9912 41.1172 18.2809C41.3289 18.488 41.5182 18.7179 41.681 18.9666C41.7892 19.1317 41.8857 19.3051 41.9695 19.4857C42.1058 19.7797 42.2083 20.0927 42.2718 20.4196C42.3109 20.6204 42.3386 20.8264 42.3471 21.0365C42.3478 21.0831 42.3475 21.1297 42.3472 21.1763C42.3471 21.1856 42.3471 21.195 42.3471 21.2043C42.3469 21.2283 42.3469 21.2524 42.3471 21.2764C42.3475 21.3363 42.3471 21.3962 42.3471 21.4562C42.3471 21.5218 42.3475 21.5874 42.3471 21.6529C42.3471 21.6537 42.3471 21.6546 42.3471 21.6554C42.3451 21.6562 42.3431 21.657 42.3471 21.6578C42.343 22.1874 42.3471 22.6904 42.3471 23.25C42.3471 24.1093 42.2647 24.9145 42.0228 25.4348C41.7808 25.955 41.2858 26.441 40.98 26.8197C40.9716 26.8301 40.9632 26.8405 40.9548 26.8509C40.7941 27.0492 40.6306 27.2451 40.4641 27.4384C40.2564 27.6797 40.0443 27.9171 39.8278 28.1504C39.7678 28.2151 39.7075 28.2794 39.6469 28.3434C39.4386 28.5633 39.2265 28.7795 39.0105 28.9918C39.0568 28.6144 39.0948 28.2343 39.1243 27.852C39.1328 27.7431 39.1405 27.634 39.1475 27.5247C39.169 27.1918 39.206 26.9137 39.2325 26.5213C39.2435 26.3578 39.2476 26.2455 39.2577 26.1023C39.2618 26.0433 39.2639 25.9837 39.2639 25.9236C39.2639 25.8591 39.2615 25.7952 39.2567 25.7319C39.2466 25.5979 39.2184 25.3993 39.1569 25.1951C38.9192 24.4067 38.4264 23.9113 37.7575 23.6178C37.586 23.5425 37.3765 23.4423 37.1875 23.4067C36.2988 23.1429 35.4179 22.9698 34.4916 22.8032C34.3855 22.7841 34.2792 22.7657 34.1727 22.748C34.1359 22.7418 34.099 22.7358 34.0621 22.7298L34.0607 22.7231L34.051 22.728C33.7222 22.6748 33.3913 22.6279 33.0585 22.5875C33.0098 22.5816 32.9611 22.5758 32.9124 22.5701C32.8411 22.5619 32.7697 22.5539 32.6981 22.5463C32.6822 22.5446 32.6663 22.5429 32.6503 22.5412C32.2918 22.5034 31.931 22.4731 31.5681 22.4504C31.5173 22.4472 31.4665 22.4442 31.4156 22.4413C31.2394 22.4314 31.0627 22.4232 30.8856 22.4168C30.6471 22.4082 30.4079 22.4029 30.1678 22.4009C30.1562 22.4008 30.1447 22.4007 30.1331 22.4006C30.0726 22.4002 30.0121 22.4 29.9516 22.4C29.6854 22.4 29.4201 22.4041 29.1558 22.4122C28.5836 22.4297 28.016 22.4661 27.4539 22.5208C27.2146 22.5441 26.9763 22.5707 26.7391 22.6005C26.6211 22.6154 26.5034 22.631 26.386 22.6474C26.1404 22.6818 25.8958 22.7197 25.6525 22.7611C25.4765 22.791 25.3011 22.8227 25.1263 22.8562L25.1131 22.8587C25.102 22.8608 25.091 22.863 25.0799 22.8651C24.8233 22.9148 24.5681 22.9683 24.3144 23.0256C24.2225 23.0464 24.1309 23.0676 24.0394 23.0893C24.0875 23.0587 24.1357 23.0283 24.1841 22.998C24.4036 22.8605 24.6254 22.7263 24.8494 22.5954C24.9801 22.519 25.1115 22.4437 25.2437 22.3696C25.3143 22.33 25.3852 22.2907 25.4563 22.2517C25.5528 22.1988 25.6497 22.1464 25.747 22.0947L25.7601 22.0878C26.0371 21.9407 26.3171 21.7987 26.6001 21.6617C26.8155 21.5574 27.0326 21.456 27.2513 21.3577C27.8716 21.0788 28.5052 20.8239 29.1507 20.5944C29.3754 20.5145 29.6016 20.4376 29.8292 20.3639C30.1134 20.2718 30.3999 20.1845 30.6885 20.1022C31.0615 19.9958 31.438 19.8978 31.8178 19.8082C32.2525 19.7056 32.6916 19.6142 33.1346 19.5342L33.1366 19.5119C33.1382 19.4943 33.1397 19.4768 33.1413 19.4592C33.1957 18.8311 33.2235 18.1961 33.2235 17.555C33.2235 17.4665 33.2229 17.3781 33.2219 17.2898C33.2213 17.2427 33.2206 17.1957 33.2198 17.1487C33.2158 16.9324 33.2087 16.7168 33.1984 16.502C33.197 16.4716 33.1955 16.4412 33.1939 16.4109Z" fill="#FF6000"/>
<path d="M50.1118 41.3672C49.8575 41.5625 49.5993 41.7531 49.3375 41.9389C49.6703 41.4304 49.9855 40.9093 50.2821 40.3765C50.3224 40.3041 50.3623 40.2316 50.4019 40.1588C50.4234 40.1193 50.4448 40.0797 50.4661 40.04C51.1209 38.8207 51.6794 37.542 52.1313 36.2141C52.1944 36.0285 52.2555 35.8421 52.3144 35.6546C52.3713 35.4739 52.4262 35.2922 52.4791 35.1097C52.6374 34.5639 52.7779 34.0105 52.9 33.4502C52.9143 33.3842 52.9285 33.3181 52.9424 33.2519C53.2974 31.557 53.4841 29.8003 53.4841 28C53.4841 27.3769 53.4618 26.7591 53.4178 26.1472C53.3995 25.893 53.3775 25.6399 53.3519 25.3878C53.3187 25.0619 53.2794 24.7377 53.234 24.4155C53.1691 23.9547 53.0919 23.4978 53.0028 23.0452C52.8645 22.3435 52.6974 21.6521 52.5028 20.9724C52.3332 20.3799 52.1426 19.7962 51.932 19.2222C51.8654 19.0407 51.7968 18.8602 51.7263 18.6807C51.4421 17.9579 51.1259 17.2512 50.7794 16.5625C50.5698 16.1458 50.349 15.7356 50.1176 15.3324C49.7177 14.6358 49.2859 13.9599 48.8242 13.3067C48.1524 12.3564 47.4172 11.4542 46.6248 10.6061C46.3734 10.337 46.1162 10.0733 45.8534 9.81535C45.3204 9.292 44.7645 8.79191 44.1873 8.31671C41.5007 6.10491 38.3535 4.43243 34.9112 3.46489C32.7137 2.84723 30.3959 2.51685 28.001 2.51685C27.825 2.51685 27.6495 2.51863 27.4743 2.52219C27.4327 2.52303 27.3911 2.52397 27.3496 2.52502C26.3804 2.54933 25.4247 2.62776 24.4854 2.75738C24.3715 2.7731 24.2579 2.78956 24.1445 2.80677C22.2034 3.10145 20.3341 3.61512 18.5628 4.3218C17.9755 4.55612 17.3989 4.81167 16.834 5.08748C16.2823 5.05181 15.7258 5.0337 15.1651 5.0337C15.0628 5.0337 14.9607 5.03431 14.8587 5.03551C13.7675 5.04836 12.6929 5.1298 11.6388 5.2757C12.7043 4.50716 13.826 3.8117 14.9966 3.19669C15.9487 2.6965 16.933 2.24953 17.9458 1.85971C18.6196 1.60034 19.306 1.36627 20.0038 1.15868C21.5862 0.687915 23.2272 0.35327 24.9133 0.168316C25.2122 0.135524 25.5126 0.107439 25.8142 0.0841338C26.5358 0.0283902 27.2651 0 28.001 0C28.3972 0 28.7916 0.00823127 29.1838 0.0245306C29.739 0.0476057 30.2901 0.086849 30.8366 0.141805C36.3516 0.696455 41.3945 2.8515 45.4939 6.13554C45.7712 6.3577 46.0442 6.58503 46.3128 6.81737C46.5793 7.04799 46.8415 7.28356 47.0991 7.52393C49.4895 9.75442 51.4889 12.3985 52.9833 15.3422C53.4429 16.2475 53.8547 17.1811 54.2155 18.1398C54.5493 19.0267 54.8393 19.9351 55.083 20.8622C55.1844 21.248 55.2778 21.637 55.3629 22.029C55.4639 22.494 55.5534 22.9633 55.631 23.4366C55.8148 24.5581 55.932 25.702 55.9784 26.8641C55.9903 27.164 55.9976 27.4651 56 27.7674C56.0007 27.8448 56.001 27.9224 56.001 28C56.001 31.1754 55.4724 34.2273 54.4984 37.0726C54.4251 37.164 54.3511 37.255 54.2766 37.3454C54.0352 37.6381 53.7873 37.9253 53.5333 38.2068C53.3504 38.4096 53.1642 38.6094 52.9748 38.8062C52.6352 39.1593 52.2855 39.5026 51.9261 39.8356C51.533 40.2 51.1283 40.5521 50.7128 40.8914C50.5859 40.995 50.458 41.0974 50.3291 41.1986C50.257 41.2552 50.1846 41.3114 50.1118 41.3672Z" fill="#FF6000"/>
<path d="M33.5083 9.66461C34.452 10.2744 35.3527 10.9449 36.2051 11.6705C35.5981 11.3886 34.9781 11.1299 34.3464 10.8956C33.5589 10.6035 32.753 10.3491 31.931 10.1349C31.8908 10.1244 31.8506 10.114 31.8104 10.1037C31.3511 9.98642 30.8868 9.88157 30.4179 9.78959C30.4469 9.91404 30.4751 10.0389 30.5023 10.164C30.5296 10.2895 30.556 10.4153 30.5814 10.5415C30.6072 10.6697 30.6321 10.7983 30.656 10.9272C30.7415 11.3877 30.8145 11.8526 30.8748 12.3214C30.9415 12.8396 30.9926 13.3628 31.0276 13.8903C31.0532 14.2755 31.0702 14.6631 31.0785 15.0528C30.8943 14.7411 30.7036 14.4336 30.5066 14.1306C30.1894 13.6426 29.8559 13.1661 29.5069 12.7018C29.201 12.2948 28.8831 11.8973 28.5538 11.5097C28.0705 10.9408 27.5626 10.3934 27.0318 9.8691C26.8474 9.68695 26.6602 9.50759 26.4703 9.3311C25.0707 8.03013 23.5246 6.88463 21.8595 5.92211C21.7028 5.83151 21.545 5.74254 21.3862 5.65521C24.3715 5.85074 27.2165 6.56033 29.8335 7.69632C30.294 7.89625 30.7476 8.10939 31.1935 8.33526C31.9032 8.69468 32.5938 9.08634 33.2634 9.50831C33.3454 9.55996 33.427 9.61206 33.5083 9.66461Z" fill="#454545"/>
<path fill-rule="evenodd" clip-rule="evenodd" d="M5.73748 11.0169C6.41993 10.1236 7.15492 9.27268 7.93783 8.4686C9.06411 7.88186 10.2397 7.37679 11.4568 6.96124C12.2024 6.75004 12.9648 6.5982 13.7411 6.50967C13.9573 6.48501 14.1746 6.46527 14.393 6.45052C14.7111 6.42903 15.0313 6.41815 15.3535 6.41815C16.7844 6.41815 18.1771 6.63271 19.514 7.03863C20.0968 7.2156 20.6689 7.42893 21.229 7.67672C22.2418 8.12475 23.215 8.68542 24.14 9.34736C24.1826 9.37783 24.2251 9.40851 24.2675 9.43941C24.4446 9.56858 24.62 9.70148 24.7935 9.83803C25.6964 10.5487 26.549 11.3582 27.3424 12.2552C27.616 12.5645 27.8825 12.8841 28.1417 13.2137C28.5333 13.7118 28.9081 14.2325 29.2648 14.7743C29.7712 15.5435 30.2412 16.3551 30.6712 17.2046C30.7218 17.3046 30.7718 17.4051 30.8214 17.5062C30.8771 17.6199 30.9321 17.7342 30.9863 17.8492C30.9802 17.9194 30.9738 17.9895 30.9671 18.0596C30.9119 18.0868 30.8569 18.1143 30.802 18.1421C30.1146 18.344 29.4146 18.5164 28.7034 18.658C28.6889 18.6609 28.6744 18.6638 28.6599 18.6666C28.1023 18.7766 27.5379 18.8675 26.9673 18.9388C26.7256 18.969 26.4827 18.9956 26.2388 19.0187C25.4889 19.0896 24.729 19.1267 23.9608 19.1282L23.9514 19.1282L23.9321 19.1282L23.9108 19.1283C23.0815 19.1283 22.2619 19.0869 21.4539 19.0062C21.3207 18.9928 21.1878 18.9785 21.0553 18.963C20.8857 18.9433 20.7165 18.9218 20.548 18.8985C20.0496 18.8299 19.556 18.7462 19.0677 18.6479C18.366 18.5067 17.6753 18.3354 16.9968 18.1354C16.8959 18.1057 16.7953 18.0753 16.6949 18.0443C15.8527 17.7841 15.03 17.4795 14.2295 17.1334C14.1948 17.1184 14.16 17.1033 14.1254 17.0881C13.97 17.0054 13.8088 16.9325 13.6423 16.8702C13.2481 16.7225 12.8249 16.6338 12.3837 16.6151C12.3252 16.6127 12.2665 16.6114 12.2074 16.6114C12.0093 16.6114 11.8146 16.6255 11.624 16.6527C11.2956 16.6777 10.9696 16.714 10.646 16.7613C10.539 16.7769 10.4322 16.7938 10.3257 16.8118C10.0355 16.861 9.74736 16.919 9.46152 16.9856C8.32126 17.2515 7.21742 17.6547 6.16041 18.1819C5.4055 18.5583 4.67446 18.998 3.9711 19.4959C2.72214 20.38 1.56044 21.4476 0.507187 22.6712C0.71377 21.599 0.981516 20.5487 1.30664 19.5238C1.37954 19.294 1.45533 19.0655 1.53397 18.8383C2.4501 16.1914 3.7521 13.7246 5.3727 11.5052C5.49256 11.3411 5.61416 11.1783 5.73748 11.0169ZM21.1946 15.8271C22.3372 15.8271 23.3699 15.3569 24.1099 14.5995C22.0381 13.3267 19.6745 12.4827 17.1427 12.1911C16.8095 12.1527 16.4733 12.1239 16.1345 12.105C15.813 12.087 15.4891 12.0779 15.1631 12.0779C14.9798 12.0779 14.7971 12.0808 14.6151 12.0865C15.0974 12.1177 15.5569 12.2328 15.9791 12.4174C16.6493 12.7104 17.2254 13.1784 17.6497 13.7637C17.724 13.8942 17.8052 14.0203 17.893 14.1413C18.6335 15.1628 19.8365 15.8271 21.1946 15.8271Z" fill="#454545"/>
<path d="M25.1724 43.0809C24.6713 42.4336 24.2169 41.7482 23.8145 41.0298C24.4594 41.5862 25.1477 42.0939 25.8735 42.5469C26.7607 43.1007 27.7041 43.5729 28.6932 43.9531C28.7227 43.9645 28.7523 43.9758 28.7819 43.9869C28.8303 44.0052 28.8789 44.0233 28.9275 44.0412C29.3215 44.1858 29.7225 44.3158 30.1299 44.4308C30.14 44.4336 30.1502 44.4365 30.1604 44.4393C30.1407 44.4104 30.1212 44.3814 30.1017 44.3523C29.9239 44.0866 29.7535 43.8154 29.5909 43.5392C29.5521 43.4733 29.5137 43.4071 29.4758 43.3406C29.202 42.8601 28.9514 42.3647 28.7257 41.8557C28.8386 41.9236 28.9523 41.9905 29.0669 42.0564C29.3815 42.2375 29.7026 42.4114 30.03 42.5778C30.2378 42.6834 30.4481 42.7861 30.6608 42.8856C30.7709 42.9371 30.8815 42.9878 30.9929 43.0376C31.0104 43.0455 31.028 43.0533 31.0456 43.0611C31.3941 43.2161 31.7488 43.3628 32.1093 43.5011C32.376 43.6034 32.6458 43.701 32.9187 43.7939C33.0655 43.8438 33.2132 43.8924 33.3617 43.9396C34.3263 44.2461 35.3268 44.4934 36.3565 44.6764C36.3898 44.6823 36.4231 44.6882 36.4564 44.6939C36.6535 44.7281 36.8517 44.7599 37.0509 44.7893C37.1501 44.8039 37.2495 44.818 37.3492 44.8314C37.9866 44.9174 38.634 44.9789 39.29 45.0147C39.5307 45.0278 39.7725 45.0375 40.0154 45.0436C40.2259 45.049 40.4372 45.0516 40.6493 45.0516C40.7715 45.0516 40.8935 45.0508 41.0153 45.049C42.013 45.0344 42.9932 44.9605 43.9506 44.8313C43.9477 44.8413 43.9447 44.8514 43.9418 44.8614C43.979 44.8468 44.0162 44.832 44.0534 44.8172C44.4492 44.762 44.8411 44.6974 45.2288 44.6236C45.9427 44.4878 46.6421 44.3209 47.3248 44.1247C47.3708 44.1115 47.4167 44.0981 47.4626 44.0846C47.5986 44.0446 47.7339 44.0035 47.8685 43.9612C48.4191 43.7882 48.9581 43.5959 49.4843 43.3855C49.756 43.2768 50.0244 43.1633 50.2892 43.045C50.5705 42.9193 50.8478 42.7883 51.1208 42.6522L51.1235 42.6509C51.4498 42.4881 51.7701 42.3179 52.084 42.1406C51.8191 42.537 51.5375 42.9213 51.2404 43.2925C50.9461 43.6602 50.6365 44.015 50.3125 44.3561C50.2419 44.4303 50.1707 44.5039 50.0988 44.5769C49.5391 45.1448 48.9388 45.6724 48.3026 46.1552C47.9969 46.3872 47.6829 46.6088 47.3612 46.8195C46.8202 47.1737 46.2573 47.4972 45.6749 47.7875C45.0213 48.1132 44.3431 48.397 43.6439 48.6355C43.444 48.6732 43.2432 48.7086 43.0416 48.7417C42.9426 48.7579 42.8434 48.7736 42.7439 48.7887C42.5475 48.8185 42.3503 48.8461 42.1524 48.8714C41.0834 49.0081 39.9936 49.0786 38.8875 49.0786C38.8762 49.0786 38.865 49.0786 38.8538 49.0786C38.4886 49.0781 38.1252 49.07 37.7638 49.0543C37.4927 49.0425 37.2227 49.0265 36.9539 49.0064C36.1978 48.9496 35.4508 48.8599 34.7145 48.7386C34.6154 48.7223 34.5165 48.7054 34.4179 48.6879C34.3777 48.6808 34.3375 48.6736 34.2974 48.6663C34.0237 48.6165 33.7515 48.5624 33.481 48.5039C33.4088 48.4884 33.3368 48.4725 33.2649 48.4563C32.9528 48.386 32.643 48.31 32.3354 48.2284C31.8848 48.1089 31.4391 47.9773 30.9987 47.8341C30.98 47.8249 30.9613 47.8156 30.9426 47.8064C30.7333 47.7028 30.5265 47.5949 30.3224 47.4828C30.2481 47.442 30.1741 47.4006 30.1005 47.3587C29.7211 47.1428 29.351 46.9123 28.9911 46.668C28.896 46.6035 28.8016 46.538 28.7079 46.4716C28.349 46.217 28.0007 45.9485 27.6637 45.6668C27.6317 45.64 27.5997 45.6132 27.5679 45.5862C27.3144 45.371 27.0673 45.1483 26.8272 44.9185C26.2314 44.3482 25.6781 43.7339 25.1724 43.0809Z" fill="#454545"/>
<path d="M28.8852 23.7422C28.685 24.0124 28.4925 24.2887 28.308 24.5707C28.1353 24.8346 27.9696 25.1035 27.8112 25.3772C27.6499 25.6558 27.4962 25.9393 27.3503 26.2274C27.3136 26.2998 27.2774 26.3725 27.2418 26.4455C27.2099 26.5108 27.1783 26.5763 27.1472 26.6421C27.1298 26.6587 27.1125 26.6754 27.0953 26.6922C27.1071 26.687 27.119 26.6817 27.1309 26.6765C26.4338 28.158 25.9403 29.7543 25.6863 31.4295C25.5568 32.284 25.4897 33.1591 25.4897 34.0499C25.4897 34.2254 25.4923 34.4003 25.4974 34.5745C25.5123 35.0734 25.5482 35.5671 25.6043 36.0545C25.6866 36.7697 25.8124 37.4717 25.9791 38.1576C26.1901 39.0262 26.4665 39.8692 26.8028 40.6811C25.2709 39.4944 23.9648 38.1131 22.9428 36.5852C22.8994 36.5203 22.8565 36.4551 22.8141 36.3896C22.7565 36.3008 22.6999 36.2114 22.6443 36.1216C22.6373 36.208 22.6311 36.2946 22.6257 36.3814L22.6244 36.4012C22.616 36.5382 22.6094 36.6758 22.6048 36.8138C22.599 36.9835 22.5961 37.1539 22.5961 37.325C22.5961 37.7463 22.6137 38.1635 22.6482 38.5759C22.6974 39.1652 22.7812 39.7447 22.8974 40.3124C23.1571 41.5811 23.5789 42.7907 24.1403 43.9184C24.2746 44.1882 24.4168 44.4532 24.5668 44.7133C24.6008 44.7723 24.6352 44.8311 24.6701 44.8896C24.8338 45.1648 25.0062 45.4343 25.187 45.6976C25.5086 46.1663 25.8566 46.6155 26.2287 47.0431C26.4561 47.3045 26.6926 47.5578 26.9376 47.8026C27.1843 48.049 27.4397 48.2868 27.7032 48.5153C27.8368 48.6313 27.9726 48.7449 28.1104 48.8561C28.6111 49.26 29.1386 49.6319 29.6899 49.9687C30.1027 50.2209 30.5288 50.4534 30.9669 50.6648C31.0039 50.6827 31.041 50.7004 31.0782 50.718C31.2742 50.8106 31.4724 50.899 31.673 50.983C31.9034 51.0796 32.1369 51.1706 32.3731 51.2557C32.3827 51.2591 32.3923 51.2626 32.4019 51.266C33.0248 51.489 33.6671 51.6713 34.3255 51.8097C34.433 51.8323 34.541 51.8537 34.6494 51.874C35.3205 51.9994 36.0074 52.0794 36.707 52.1107C36.8844 52.1186 37.0627 52.1234 37.2416 52.1251C37.2872 52.1255 37.3327 52.1257 37.3783 52.1257C38.2363 52.1257 39.0773 52.0525 39.8952 51.912C40.2389 51.853 40.5784 51.7821 40.9135 51.6998C40.9858 51.682 41.0579 51.6637 41.1298 51.6449C41.4561 51.5594 41.778 51.4631 42.0951 51.3563C42.4673 51.2309 42.8329 51.091 43.1912 50.9374L43.22 50.9251C44.623 50.3237 45.6828 49.8695 46.8232 48.879C45.8403 49.7732 44.7935 50.5983 43.6906 51.3467C43.4393 51.5173 43.185 51.6839 42.928 51.8463C41.531 52.7293 40.0506 53.492 38.5013 54.1198C38.5233 54.1005 38.5452 54.0812 38.5671 54.0619C37.6349 54.4837 36.6568 54.8217 35.6423 55.0662C35.2105 55.1703 34.7721 55.2575 34.3279 55.327C33.4874 55.4585 32.6259 55.5267 31.7485 55.5267C31.2331 55.5267 30.7231 55.5032 30.2197 55.4571C30.1078 55.4468 29.9963 55.4355 29.885 55.423C29.4737 55.3769 29.0669 55.3158 28.6652 55.2401C28.5826 55.2246 28.5003 55.2084 28.4181 55.1916C28.1829 55.1436 27.9496 55.0906 27.7181 55.0327C27.6534 55.0165 27.5888 54.9999 27.5244 54.983C27.3163 54.9282 27.1098 54.8695 26.905 54.8069C26.6511 54.7294 26.3997 54.6459 26.1511 54.5566C25.799 54.4301 25.4523 54.292 25.1116 54.1428C24.4787 53.8656 23.8665 53.5499 23.2778 53.1988C23.0634 53.0709 22.852 52.9383 22.644 52.8011C22.1033 52.4446 21.5848 52.0572 21.0908 51.6416C20.8619 51.4489 20.6382 51.2502 20.4201 51.0457L20.4101 51.0362C20.4038 51.0304 20.3975 51.0245 20.3913 51.0186C20.2804 50.9141 20.171 50.8081 20.063 50.7007C19.7366 50.3757 19.4235 50.0372 19.1249 49.6862C19.323 50.0582 19.5348 50.4219 19.7597 50.7764C19.8189 50.8699 19.8791 50.9627 19.9402 51.0548C19.9707 51.1008 20.0014 51.1467 20.0324 51.1924C20.2762 51.5525 20.5338 51.9025 20.8044 52.2417C20.9326 52.4023 21.0637 52.5605 21.1976 52.7162C21.3654 52.9113 21.5377 53.1025 21.7143 53.2895C22.2273 53.8329 22.7766 54.3415 23.3582 54.8116C23.454 54.8891 23.5507 54.9655 23.6483 55.0408C23.8351 55.185 24.025 55.3253 24.2179 55.4616C24.2737 55.501 24.3298 55.5401 24.3861 55.5789C24.5972 55.7241 24.8118 55.8645 25.0297 56C24.467 55.9405 23.9094 55.8642 23.3571 55.7718C22.7088 55.6633 22.0681 55.5325 21.4357 55.3802C21.3166 55.3515 21.1977 55.3221 21.0792 55.2919C20.9384 55.256 20.798 55.219 20.658 55.181C20.6084 55.1563 20.559 55.1313 20.5097 55.1061L20.5033 55.1028C20.0119 54.8513 19.5347 54.576 19.0733 54.2784C18.4573 53.8811 17.8693 53.444 17.3129 52.9708C17.1301 52.8154 16.9507 52.656 16.7748 52.4928C16.7698 52.4869 16.7649 52.481 16.7599 52.4751C16.7067 52.4109 16.6565 52.344 16.6097 52.2747C16.4931 52.0319 16.3802 51.787 16.271 51.54C16.2559 51.4855 16.2426 51.4302 16.2312 51.3742C16.2207 51.3752 16.2103 51.3762 16.1998 51.3772C16.0842 51.1105 15.973 50.8415 15.8663 50.5701L15.8775 50.5729L15.8982 50.578C15.886 50.5714 15.8737 50.5647 15.8615 50.5581C15.411 49.4106 15.0411 48.2224 14.7589 47.0007C14.7166 46.8176 14.6763 46.6337 14.638 46.4491C14.2881 44.7643 14.1042 43.0186 14.1042 41.2298C14.1042 40.982 14.1077 40.7351 14.1147 40.489C14.1216 40.2464 14.1319 40.0046 14.1456 39.7637C14.2007 38.7897 14.3104 37.8303 14.4717 36.8886C14.7114 37.1979 14.9581 37.5015 15.2115 37.7993C15.5376 38.1825 15.8748 38.5559 16.2227 38.919C16.3048 39.0047 16.3875 39.0898 16.4707 39.1744C16.6282 39.3342 16.7877 39.492 16.9493 39.6476C17.0637 39.7579 17.1792 39.8671 17.2957 39.9752C17.6711 40.3237 18.057 40.6609 18.4529 40.9865C18.4057 40.4651 18.3816 39.937 18.3816 39.4034C18.3816 39.2974 18.3825 39.1916 18.3844 39.0861C18.3857 39.0139 18.3875 38.9418 18.3897 38.8698C18.401 38.4947 18.4242 38.1226 18.459 37.7539C18.5046 37.2707 18.57 36.7933 18.6545 36.3224C18.7711 35.6721 18.924 35.0343 19.1109 34.4112C19.1311 34.3442 19.1516 34.2774 19.1725 34.2107C19.2255 34.0414 19.2811 33.8733 19.3392 33.7062C19.6162 32.9096 19.9497 32.1394 20.3349 31.4005C20.4331 31.212 20.5348 31.0256 20.6397 30.8413C21.1555 29.9348 21.7508 29.0794 22.416 28.2847C23.0851 27.4854 23.825 26.7474 24.6259 26.0804C25.1971 25.6048 25.7993 25.1653 26.4291 24.7655C26.6303 24.6377 26.8343 24.514 27.0411 24.3945C27.1766 24.3161 27.3133 24.2396 27.451 24.1648C27.7369 24.0097 28.0277 23.8624 28.323 23.7233C28.4723 23.6529 28.6228 23.5847 28.7744 23.5185C28.9118 23.4585 29.0501 23.4003 29.1893 23.3439C29.1184 23.434 29.0484 23.5248 28.9793 23.6164C28.9477 23.6582 28.9164 23.7001 28.8852 23.7422Z" fill="#454545"/>
<path d="M4.38583 36.8561C4.31147 36.9135 4.2376 36.9715 4.16425 37.0301C3.96596 37.1885 3.77138 37.3514 3.58067 37.5185C3.09268 37.9463 2.63 38.4022 2.19519 38.8838C2.5402 37.9393 2.91453 36.9617 3.36434 36.0733C3.45691 35.8904 3.55162 35.7089 3.64844 35.5286C4.2703 34.3707 4.97907 33.2664 5.76603 32.2245C5.94065 31.9933 6.11912 31.7652 6.30135 31.5402C6.57027 31.2082 6.84738 30.8831 7.13235 30.5652C8.0181 29.5771 8.97989 28.6585 10.0085 27.8187C10.6108 27.327 11.236 26.8623 11.8823 26.4264C12.3981 26.0785 12.9274 25.749 13.4691 25.4388C14.1247 25.0634 14.7986 24.7163 15.4891 24.3991C15.4696 24.4324 15.4496 24.4655 15.4292 24.4982C15.617 24.3856 15.8073 24.2766 15.9998 24.1713C16.9533 23.7586 17.9371 23.4024 18.9468 23.1071C19.3338 22.9939 19.7246 22.8896 20.1189 22.7945C20.3268 22.7444 20.5358 22.6968 20.7456 22.6518C21.1033 22.5752 21.4638 22.506 21.8268 22.4445C21.9789 22.4187 22.1315 22.3943 22.2845 22.3712C22.9068 22.2775 23.5366 22.2062 24.1729 22.1583C23.9341 22.3897 23.6999 22.6257 23.4703 22.8662C23.3165 23.0273 23.1649 23.1904 23.0153 23.3555C22.6781 23.7278 22.3517 24.1101 22.0366 24.5019C21.9546 24.6039 21.8734 24.7065 21.7929 24.8098C21.4504 25.2494 21.122 25.7005 20.8084 26.1625C20.7363 26.2686 20.665 26.3754 20.5945 26.4827C20.5738 26.5142 20.5531 26.5458 20.5325 26.5775C20.4935 26.6374 20.4548 26.6975 20.4163 26.7578C20.1819 27.1247 19.9566 27.4979 19.7409 27.8773C19.1763 28.8698 18.6765 29.9039 18.2472 30.9739C17.8979 31.8443 17.5953 32.7384 17.3425 33.6532C17.1353 34.4025 16.9616 35.1657 16.8229 35.941C16.8229 35.941 16.0173 34.8658 15.7707 34.3359C15.6321 34.0382 15.4991 33.7374 15.3719 33.4336C15.3521 33.3863 15.3324 33.339 15.3129 33.2916L15.3114 33.2879C15.243 33.1218 15.1764 32.9548 15.1114 32.787C15.0027 32.9943 14.8967 33.2032 14.7935 33.4138C14.4949 34.0233 14.2199 34.6465 13.9697 35.2822C13.9006 35.4577 13.8334 35.6341 13.7682 35.8114C13.2597 37.1932 12.8676 38.6312 12.6036 40.1136C12.5703 40.3004 12.5391 40.488 12.5099 40.6762C12.3111 41.9588 12.2079 43.273 12.2079 44.6113C12.2079 44.7584 12.2092 44.9053 12.2117 45.0518C12.2111 45.0825 12.2107 45.1133 12.2103 45.144C12.2087 45.2599 12.2079 45.376 12.2079 45.4922C12.2079 45.6809 12.21 45.8692 12.2141 46.057C12.2174 46.2112 12.2222 46.3651 12.2282 46.5187C12.2493 47.0516 12.2868 47.5803 12.3402 48.1043C12.3767 48.4631 12.4207 48.8197 12.472 49.174C12.5617 49.7942 12.8372 50.9978 13.0259 51.627C11.9281 50.6312 10.7458 48.8754 9.94634 47.6196C9.5485 46.9947 9.19137 46.3413 8.87867 45.6631C8.77835 45.4456 8.6826 45.2255 8.59155 45.003C8.47164 44.7099 8.35987 44.4127 8.25654 44.1115C7.9235 43.1408 7.67801 42.1295 7.52951 41.0869C7.52617 41.0635 7.52289 41.04 7.51965 41.0166C7.4389 40.4317 7.38867 39.8371 7.37059 39.2345C7.25216 39.8267 7.16527 40.4304 7.11178 41.0437C7.1107 41.056 7.10964 41.0683 7.1086 41.0806C7.06873 41.5496 7.0484 42.0241 7.0484 42.5034V42.5082C7.04857 43.1206 7.08195 43.7253 7.14683 44.3205C7.17393 44.5691 7.20652 44.816 7.24449 45.0612C7.23169 45.056 7.21889 45.0508 7.2061 45.0455C7.22073 45.0628 7.2354 45.08 7.25009 45.0972C7.37024 45.8619 7.54266 46.6093 7.76358 47.3355L7.77029 47.3575C6.7813 46.3242 5.87069 45.2152 5.04801 44.0402C4.97629 43.9377 4.88207 43.7973 4.8162 43.6645C4.71807 43.4667 4.63928 42.9832 4.56689 42.6363C4.4587 42.118 4.37471 41.5907 4.31617 41.0559C4.30957 40.9956 4.3033 40.9352 4.29734 40.8747C4.26522 40.5483 4.24258 40.219 4.22967 39.8873C4.22121 39.6697 4.21694 39.4511 4.21694 39.2315C4.21694 38.6187 4.25019 38.0137 4.31498 37.4181C4.33546 37.2298 4.35909 37.0425 4.38583 36.8561Z" fill="#454545"/>
<path d="M19.5299 21.633C18.3383 21.8009 17.1743 22.0547 16.0444 22.3882C16.0015 22.4009 15.9585 22.4137 15.9156 22.4266C15.0573 22.685 14.2189 22.9895 13.4033 23.337C12.5427 23.7038 11.7074 24.1186 10.9008 24.578C10.4187 24.8526 9.94683 25.1431 9.48595 25.4489C9.45168 25.4717 9.41748 25.4945 9.38334 25.5174C7.5086 26.7749 5.81779 28.2854 4.35978 30C4.10738 30.2968 3.86197 30.5997 3.62378 30.9085C3.34905 31.2647 3.08394 31.6286 2.82883 32C2.1221 33.0288 1.49215 34.1146 0.947277 35.2489C0.619635 34.0231 0.373096 32.7641 0.213758 31.4782C0.072546 30.3385 -0.000175476 29.1777 -0.000175476 27.9998C-0.000175476 27.7812 0.00232887 27.5631 0.00731277 27.3457C0.250986 26.9304 0.504822 26.5258 0.76832 26.1325C1.27708 25.3732 1.82189 24.6562 2.39925 23.986C2.57405 23.7831 2.75184 23.5845 2.93251 23.3903C4.53172 21.6714 6.35714 20.2986 8.34163 19.3598C8.62909 19.2238 8.91989 19.0969 9.21383 18.9794C9.57905 18.8334 9.9491 18.7018 10.3236 18.5853C10.5312 18.5207 10.7402 18.4606 10.9505 18.4053C11.1329 18.3573 11.3164 18.3128 11.5007 18.2719C11.6499 18.2555 11.8014 18.247 11.9549 18.247C12.4712 18.247 12.9652 18.3427 13.4201 18.5173C13.5665 18.5967 13.7138 18.6746 13.8619 18.7511L13.9819 18.8126C14.0632 18.854 14.1447 18.8949 14.2265 18.9354C14.8611 19.2495 15.5113 19.5368 16.1756 19.7959L16.1979 19.8046C17.383 20.2654 18.6131 20.6364 19.8796 20.909C20.1209 20.961 20.3635 21.0094 20.6073 21.0541C21.2047 21.1637 21.8097 21.2516 22.4215 21.3169C22.716 21.3484 23.012 21.3746 23.3096 21.3954C23.1953 21.3939 23.0808 21.3931 22.9661 21.3931C22.7679 21.3931 22.5703 21.3954 22.3733 21.4001C21.7279 21.4155 21.0886 21.4559 20.4565 21.5205C20.1459 21.5522 19.8369 21.5898 19.5299 21.633Z" fill="#454545"/>
<path d="M31.041 26.556C30.9558 26.8381 30.8822 27.1249 30.8208 27.4158C30.6734 28.114 30.5961 28.8362 30.5961 29.5756C30.5961 30.9237 30.8531 32.2147 31.3231 33.4068C31.5353 33.9449 31.7909 34.4629 32.0859 34.9569C32.2871 35.294 32.5067 35.6199 32.7434 35.9334C32.8164 36.0302 32.8911 36.1258 32.9674 36.2202C33.7538 37.1933 34.7087 38.0369 35.7906 38.7114C35.8685 38.7599 35.947 38.8076 36.0262 38.8543C36.8328 39.3309 37.706 39.7151 38.6297 39.9913C39.7185 40.3169 40.8773 40.4924 42.0792 40.4924C42.4567 40.4924 42.8299 40.4751 43.1981 40.4413C44.0032 40.3673 44.7839 40.2142 45.5317 39.9904C45.763 39.9212 45.9911 39.8452 46.2158 39.7627C47.0655 39.4506 47.8849 39.0902 48.623 38.6048C47.9096 39.5788 47.0209 40.4499 45.9857 41.1558C45.9514 41.1792 45.917 41.2024 45.8824 41.2255C44.8122 41.9384 43.5972 42.4893 42.2835 42.8371C41.242 43.1129 40.1385 43.261 38.9961 43.261C38.4345 43.261 37.8823 43.2252 37.3422 43.156C36.0585 42.9917 34.8435 42.6388 33.7339 42.1301C33.5493 42.0454 33.3676 41.9565 33.189 41.8634C32.8328 41.6777 32.4889 41.4755 32.1587 41.2578C31.9973 41.1515 31.8392 41.0415 31.6844 40.928C31.555 40.833 31.428 40.7356 31.3035 40.6358C30.9299 40.3364 30.5786 40.0155 30.2521 39.6754C29.9825 39.3945 29.7298 39.1005 29.4953 38.7946C28.9691 38.1081 28.5349 37.3617 28.2084 36.5692C27.7585 35.4773 27.513 34.2979 27.513 33.0677C27.513 33.0457 27.513 33.0238 27.5132 33.0018C27.52 32.049 27.6741 31.1273 27.9562 30.2536C28.1043 29.795 28.2876 29.3496 28.5035 28.9199C29.0766 27.7794 29.8787 26.7495 30.8581 25.8762C31.0596 25.6965 31.2686 25.5235 31.4847 25.3575C31.3133 25.7461 31.1649 26.1461 31.041 26.556Z" fill="#454545"/>
<path d="M73.121 32H67.001V4H81.841C83.041 4 84.2676 4.12 85.521 4.36C86.7743 4.57333 87.921 4.96 88.961 5.52C90.001 6.08 90.841 6.82667 91.481 7.76C92.1476 8.66667 92.481 9.82667 92.481 11.24C92.481 12.1467 92.241 12.9467 91.761 13.64C91.281 14.3333 90.6676 14.92 89.921 15.4C89.201 15.88 88.401 16.24 87.521 16.48C86.641 16.72 85.8143 16.84 85.041 16.84H92.481V32H85.921V22.2H73.121V32ZM73.121 9.44V16.84H81.801C83.001 16.84 84.001 16.5333 84.801 15.92C85.6276 15.3067 86.041 14.36 86.041 13.08C86.041 11.7467 85.641 10.8133 84.841 10.28C84.0676 9.72 83.0676 9.44 81.841 9.44H73.121ZM105.622 32.8C103.915 32.8 102.369 32.5733 100.982 32.12C99.6219 31.6667 98.4619 30.9867 97.5019 30.08C96.5419 29.1733 95.7952 28.0667 95.2619 26.76C94.7552 25.4267 94.5019 23.9067 94.5019 22.2C94.5019 18.5733 95.4486 15.8933 97.3419 14.16C99.2619 12.4 101.969 11.52 105.462 11.52C108.982 11.52 111.742 12.4267 113.742 14.24C115.742 16.0533 116.742 18.72 116.742 22.24V23.8L100.182 23.84C100.182 24.5067 100.342 25.0933 100.662 25.6C100.982 26.08 101.395 26.48 101.902 26.8C102.435 27.12 103.022 27.36 103.662 27.52C104.329 27.68 105.009 27.76 105.702 27.76C107.089 27.76 108.209 27.56 109.062 27.16C109.915 26.7333 110.435 26.1733 110.622 25.48H116.422C115.915 28.0667 114.742 29.9333 112.902 31.08C111.062 32.2267 108.635 32.8 105.622 32.8ZM100.182 20.08L110.782 20.2C110.782 19.5867 110.609 19.0533 110.262 18.6C109.942 18.1467 109.515 17.7733 108.982 17.48C108.475 17.1867 107.902 16.96 107.262 16.8C106.649 16.64 106.062 16.56 105.502 16.56C104.889 16.56 104.262 16.64 103.622 16.8C102.982 16.9333 102.409 17.1467 101.902 17.44C101.395 17.7067 100.982 18.0667 100.662 18.52C100.342 18.9467 100.182 19.4667 100.182 20.08ZM135.959 31.96V24.28C135.639 26.12 135.145 27.5867 134.479 28.68C133.812 29.7467 133.092 30.5733 132.319 31.16C131.545 31.72 130.759 32.08 129.959 32.24C129.159 32.4267 128.452 32.52 127.839 32.52C126.185 32.52 124.772 32.2667 123.599 31.76C122.452 31.2533 121.519 30.5467 120.799 29.64C120.079 28.7067 119.559 27.6 119.239 26.32C118.919 25.04 118.759 23.6133 118.759 22.04C118.759 20.5733 118.919 19.2267 119.239 18C119.559 16.7467 120.052 15.6667 120.719 14.76C121.412 13.8267 122.305 13.1067 123.399 12.6C124.519 12.0667 125.852 11.8 127.399 11.8C127.985 11.8 128.692 11.8933 129.519 12.08C130.372 12.24 131.212 12.6 132.039 13.16C132.892 13.72 133.665 14.5467 134.359 15.64C135.079 16.7067 135.612 18.16 135.959 20V4H141.959V31.96H135.959ZM135.919 22.04C135.919 21.24 135.772 20.5467 135.479 19.96C135.185 19.3467 134.785 18.84 134.279 18.44C133.799 18.04 133.212 17.7467 132.519 17.56C131.852 17.3467 131.119 17.24 130.319 17.24C128.745 17.24 127.439 17.64 126.399 18.44C125.359 19.24 124.839 20.44 124.839 22.04C124.839 23.72 125.332 24.9733 126.319 25.8C127.305 26.6 128.639 27 130.319 27C131.972 27 133.319 26.6 134.359 25.8C135.399 24.9733 135.919 23.72 135.919 22.04Z" fill="#454545"/>
<path d="M154.234 8.48C154.234 9.84 154.554 10.7733 155.194 11.28C155.861 11.76 156.847 12 158.154 12H160.034V17.04H154.234V24C154.234 25.5467 154.847 26.32 156.074 26.32H160.034V32H153.874C152.007 32 150.594 31.4133 149.634 30.24C148.674 29.0667 148.194 27.48 148.194 25.48V17.04H143.954V12H153.834C153.061 12 152.327 11.9733 151.634 11.92C150.941 11.84 150.327 11.6267 149.794 11.28C149.287 10.9067 148.887 10.3333 148.594 9.56C148.301 8.78667 148.154 7.69333 148.154 6.28V4H154.234V8.48ZM169.259 32.52C168.272 32.52 167.299 32.3867 166.339 32.12C165.405 31.8533 164.552 31.4667 163.779 30.96C163.032 30.4267 162.419 29.7733 161.939 29C161.485 28.2 161.259 27.28 161.259 26.24C161.259 25.2 161.512 24.3067 162.019 23.56C162.525 22.8133 163.179 22.2 163.979 21.72C164.779 21.24 165.659 20.88 166.619 20.64C167.605 20.3733 168.552 20.2133 169.459 20.16L177.779 19.72V19.36C177.779 18.6667 177.632 18.1067 177.339 17.68C177.045 17.2533 176.645 16.9067 176.139 16.64C175.659 16.3733 175.099 16.2 174.459 16.12C173.819 16.0133 173.152 15.96 172.459 15.96C170.885 15.96 169.632 16.2667 168.699 16.88C167.765 17.4933 167.299 18.2667 167.299 19.2H161.739C161.739 16.48 162.685 14.5067 164.579 13.28C166.472 12.0267 169.099 11.4 172.459 11.4C176.192 11.4 178.992 12.1467 180.859 13.64C182.725 15.1067 183.659 17.44 183.659 20.64V31.96H177.859V24.84C177.859 25.9333 177.699 26.8933 177.379 27.72C177.059 28.52 176.645 29.2 176.139 29.76C175.632 30.32 175.059 30.7867 174.419 31.16C173.805 31.5067 173.179 31.7867 172.539 32C171.899 32.1867 171.285 32.32 170.699 32.4C170.139 32.48 169.659 32.52 169.259 32.52ZM171.499 28.28C172.112 28.2267 172.779 28.1467 173.499 28.04C174.245 27.9333 174.939 27.7467 175.579 27.48C176.219 27.2133 176.752 26.8533 177.179 26.4C177.632 25.9467 177.859 25.3733 177.859 24.68V23.64L172.339 23.92C172.019 23.9467 171.579 23.9867 171.019 24.04C170.459 24.0667 169.899 24.1467 169.339 24.28C168.805 24.4133 168.339 24.6133 167.939 24.88C167.565 25.1467 167.379 25.52 167.379 26C167.379 26.4267 167.525 26.8 167.819 27.12C168.112 27.4133 168.459 27.6533 168.859 27.84C169.285 28 169.739 28.12 170.219 28.2C170.699 28.28 171.125 28.3067 171.499 28.28ZM189.193 8.92C188.206 8.92 187.366 8.6 186.673 7.96C186.006 7.29333 185.673 6.45333 185.673 5.44C185.673 4.42667 186.006 3.6 186.673 2.96C187.366 2.29333 188.206 1.96 189.193 1.96C190.18 1.96 191.006 2.29333 191.673 2.96C192.34 3.62667 192.673 4.45333 192.673 5.44C192.673 6.42667 192.34 7.25333 191.673 7.92C191.033 8.58667 190.206 8.92 189.193 8.92ZM186.153 12.04H192.313V32H186.153V12.04ZM194.657 4H200.937V32H194.657V4Z" fill="#FF6000"/>
<path d="M66.701 46H67.851V53H66.701V46ZM76.0998 46H77.2498V53H76.3498L73.0498 48.25V53H71.8998V46H72.7998L76.0998 50.75V46ZM83.5302 53.13C82.8569 53.13 82.2835 52.9767 81.8102 52.67C81.3435 52.3633 81.0169 51.9433 80.8302 51.41L81.8202 50.83C82.1002 51.6167 82.6802 52.01 83.5602 52.01C83.9935 52.01 84.3169 51.9267 84.5302 51.76C84.7502 51.5867 84.8602 51.3633 84.8602 51.09C84.8602 50.8033 84.7435 50.5867 84.5102 50.44C84.2769 50.2867 83.8635 50.12 83.2702 49.94C82.9369 49.84 82.6669 49.7467 82.4602 49.66C82.2535 49.5733 82.0335 49.4533 81.8002 49.3C81.5735 49.14 81.4035 48.9433 81.2902 48.71C81.1769 48.4767 81.1202 48.2033 81.1202 47.89C81.1202 47.27 81.3402 46.78 81.7802 46.42C82.2202 46.0533 82.7502 45.87 83.3702 45.87C83.9302 45.87 84.4202 46.0067 84.8402 46.28C85.2602 46.5533 85.5835 46.93 85.8102 47.41L84.8402 47.97C84.5469 47.3167 84.0569 46.99 83.3702 46.99C83.0369 46.99 82.7702 47.07 82.5702 47.23C82.3702 47.3833 82.2702 47.5933 82.2702 47.86C82.2702 48.12 82.3702 48.3267 82.5702 48.48C82.7769 48.6267 83.1469 48.7833 83.6802 48.95C83.9469 49.0367 84.1402 49.1033 84.2602 49.15C84.3869 49.19 84.5602 49.2567 84.7802 49.35C85.0069 49.4433 85.1769 49.5367 85.2902 49.63C85.4035 49.7233 85.5235 49.84 85.6502 49.98C85.7835 50.12 85.8769 50.28 85.9302 50.46C85.9835 50.64 86.0102 50.8433 86.0102 51.07C86.0102 51.7033 85.7802 52.2067 85.3202 52.58C84.8669 52.9467 84.2702 53.13 83.5302 53.13ZM94.1507 52.47C93.6574 52.91 93.0207 53.13 92.2407 53.13C91.4607 53.13 90.8241 52.91 90.3307 52.47C89.8374 52.0233 89.5907 51.4267 89.5907 50.68V46H90.7407V50.61C90.7407 51.0367 90.8641 51.3767 91.1107 51.63C91.3641 51.8833 91.7407 52.01 92.2407 52.01C92.7407 52.01 93.1141 51.8833 93.3607 51.63C93.6141 51.3767 93.7407 51.0367 93.7407 50.61V46H94.8907V50.68C94.8907 51.4267 94.6441 52.0233 94.1507 52.47ZM102.853 53L101.373 50.45H100.013V53H98.8635V46H101.663C102.29 46 102.82 46.22 103.253 46.66C103.693 47.0933 103.913 47.6233 103.913 48.25C103.913 48.6967 103.783 49.1067 103.523 49.48C103.27 49.8467 102.937 50.1133 102.523 50.28L104.113 53H102.853ZM100.013 47.08V49.42H101.663C101.97 49.42 102.23 49.3067 102.443 49.08C102.657 48.8533 102.763 48.5767 102.763 48.25C102.763 47.9233 102.657 47.6467 102.443 47.42C102.23 47.1933 101.97 47.08 101.663 47.08H100.013ZM112.206 53L111.716 51.59H108.736L108.246 53H106.996L109.536 46H110.916L113.446 53H112.206ZM109.116 50.51H111.336L110.226 47.35L109.116 50.51ZM121.049 46H122.199V53H121.299L117.999 48.25V53H116.849V46H117.749L121.049 50.75V46ZM129.557 53.13C128.504 53.13 127.63 52.7833 126.937 52.09C126.244 51.39 125.897 50.5267 125.897 49.5C125.897 48.4733 126.244 47.6133 126.937 46.92C127.63 46.22 128.504 45.87 129.557 45.87C130.19 45.87 130.774 46.02 131.307 46.32C131.847 46.62 132.267 47.0267 132.567 47.54L131.567 48.12C131.38 47.7733 131.107 47.5 130.747 47.3C130.394 47.0933 129.997 46.99 129.557 46.99C128.81 46.99 128.204 47.2267 127.737 47.7C127.277 48.1733 127.047 48.7733 127.047 49.5C127.047 50.2267 127.277 50.8267 127.737 51.3C128.204 51.7733 128.81 52.01 129.557 52.01C129.997 52.01 130.397 51.91 130.757 51.71C131.117 51.5033 131.387 51.2267 131.567 50.88L132.567 51.45C132.274 51.9633 131.857 52.3733 131.317 52.68C130.784 52.98 130.197 53.13 129.557 53.13ZM137.322 51.9H140.422V53H136.172V46H140.372V47.1H137.322V48.92H140.122V50.01H137.322V51.9ZM153.835 53L153.345 51.59H150.365L149.875 53H148.625L151.165 46H152.545L155.075 53H153.835ZM150.745 50.51H152.965L151.855 47.35L150.745 50.51ZM165.024 49.38V49.86C165.024 50.82 164.708 51.6067 164.074 52.22C163.441 52.8267 162.614 53.13 161.594 53.13C160.514 53.13 159.621 52.78 158.914 52.08C158.214 51.38 157.864 50.52 157.864 49.5C157.864 48.4867 158.214 47.63 158.914 46.93C159.621 46.2233 160.494 45.87 161.534 45.87C162.188 45.87 162.784 46.02 163.324 46.32C163.864 46.62 164.284 47.0233 164.584 47.53L163.594 48.1C163.408 47.7667 163.131 47.5 162.764 47.3C162.398 47.0933 161.988 46.99 161.534 46.99C160.801 46.99 160.198 47.23 159.724 47.71C159.251 48.19 159.014 48.79 159.014 49.51C159.014 50.23 159.251 50.8267 159.724 51.3C160.204 51.7733 160.831 52.01 161.604 52.01C162.224 52.01 162.728 51.8667 163.114 51.58C163.508 51.2867 163.758 50.8967 163.864 50.41H161.524V49.38H165.024ZM169.876 51.9H172.976V53H168.726V46H172.926V47.1H169.876V48.92H172.676V50.01H169.876V51.9ZM180.878 46H182.028V53H181.128L177.828 48.25V53H176.678V46H177.578L180.878 50.75V46ZM189.386 53.13C188.333 53.13 187.46 52.7833 186.766 52.09C186.073 51.39 185.726 50.5267 185.726 49.5C185.726 48.4733 186.073 47.6133 186.766 46.92C187.46 46.22 188.333 45.87 189.386 45.87C190.02 45.87 190.603 46.02 191.136 46.32C191.676 46.62 192.096 47.0267 192.396 47.54L191.396 48.12C191.21 47.7733 190.936 47.5 190.576 47.3C190.223 47.0933 189.826 46.99 189.386 46.99C188.64 46.99 188.033 47.2267 187.566 47.7C187.106 48.1733 186.876 48.7733 186.876 49.5C186.876 50.2267 187.106 50.8267 187.566 51.3C188.033 51.7733 188.64 52.01 189.386 52.01C189.826 52.01 190.226 51.91 190.586 51.71C190.946 51.5033 191.216 51.2267 191.396 50.88L192.396 51.45C192.103 51.9633 191.686 52.3733 191.146 52.68C190.613 52.98 190.026 53.13 189.386 53.13ZM201.216 46L198.776 50.22V53H197.626V50.22L195.186 46H196.496L198.206 49.1L199.906 46H201.216Z" fill="#454545"/>
</svg>
